<svg id="svg" version="1.1" xmlns="http://www.w3.org/2000/svg" xmlns:xlink="http://www.w3.org/1999/xlink" width="400" height="400" viewBox="0, 0, 400,400"><g id="svgg"><path id="path0" d="M196.496 67.294 C 144.579 85.303,97.912 119.488,67.034 162.128 L 66.000 163.556 66.000 166.128 C 66.010 218.021,83.807 273.458,114.634 317.618 L 117.229 321.337 121.965 322.755 C 173.680 338.250,228.364 338.155,279.300 322.484 C 283.456 321.205,282.903 321.634,285.871 317.380 C 316.443 273.559,332.688 223.414,334.305 167.868 L 334.428 163.637 331.888 160.268 C 299.541 117.384,254.228 84.449,204.159 67.430 L 200.091 66.047 196.496 67.294 M205.800 100.806 C 264.100 104.048,309.146 151.585,309.085 209.800 C 309.017 275.412,251.561 325.984,186.400 317.786 C 126.881 310.299,84.526 255.648,92.014 196.000 C 99.107 139.505,149.131 97.654,205.800 100.806 " stroke="none" fill="#047cfc" fill-rule="evenodd"></path><path id="path1" d="M195.200 52.982 C 138.267 72.741,90.308 107.583,54.549 155.165 C 51.077 159.784,51.357 158.622,51.603 167.413 C 53.269 226.822,72.021 283.316,105.863 330.874 C 108.451 334.510,107.796 334.079,113.306 335.773 C 170.438 353.343,233.299 353.105,289.140 335.106 C 292.493 334.026,291.914 334.582,296.327 328.200 C 329.381 280.401,347.671 223.895,348.733 166.299 L 348.862 159.298 345.866 155.294 C 310.179 107.610,260.633 71.734,204.073 52.625 C 199.682 51.142,200.612 51.104,195.200 52.982 M204.926 57.277 C 260.437 76.783,307.700 111.272,342.476 157.652 L 344.840 160.805 344.616 167.952 C 343.055 217.670,329.818 264.240,305.236 306.500 C 299.448 316.451,290.164 330.393,289.037 330.827 C 288.741 330.940,286.565 331.617,284.200 332.331 C 229.474 348.842,171.347 348.856,116.267 332.370 L 110.833 330.744 108.443 327.322 C 75.108 279.595,56.930 224.227,55.675 166.600 L 55.546 160.700 58.456 156.863 C 93.677 110.417,140.471 76.448,195.900 57.088 C 198.210 56.281,200.112 55.616,200.126 55.611 C 200.141 55.605,202.301 56.355,204.926 57.277 M194.700 63.685 C 142.662 81.725,97.577 114.608,64.724 158.482 C 61.658 162.578,61.912 161.545,62.067 169.287 C 63.140 222.844,80.511 275.858,111.524 320.220 C 114.971 325.152,114.325 324.568,117.453 325.581 C 169.770 342.522,229.067 342.559,282.548 325.685 C 285.902 324.627,285.399 325.080,289.089 319.800 C 315.662 281.781,332.350 236.694,336.985 190.400 C 337.837 181.884,338.532 168.692,338.370 164.084 L 338.300 162.095 335.920 158.897 C 302.848 114.469,256.820 81.058,203.922 63.080 C 199.954 61.732,200.422 61.701,194.700 63.685 M210.700 69.761 C 258.977 87.851,301.059 119.305,332.050 160.466 L 334.475 163.687 334.239 170.794 C 332.441 224.934,314.233 278.958,283.879 320.206 L 283.058 321.322 279.379 322.455 C 227.314 338.487,170.487 338.275,118.957 321.855 L 117.213 321.300 115.370 318.700 C 84.394 275.009,66.018 218.500,66.001 166.887 L 66.000 163.474 68.327 160.387 C 100.660 117.491,144.319 85.640,195.385 67.691 L 200.070 66.045 203.785 67.303 C 205.828 67.995,208.940 69.101,210.700 69.761 M197.300 100.740 C 129.939 102.307,79.974 164.986,93.312 231.189 C 104.934 288.874,160.284 326.866,218.464 317.093 C 264.781 309.312,301.350 271.897,307.984 225.500 C 317.594 158.296,265.132 99.162,197.300 100.740 M206.200 104.902 C 251.933 106.745,292.925 141.660,302.696 187.094 C 316.659 252.021,268.648 313.024,202.400 314.532 C 138.427 315.988,88.124 260.223,96.019 196.600 C 102.320 145.820,144.707 106.826,195.800 104.807 C 199.399 104.665,200.562 104.675,206.200 104.902 M189.100 110.321 C 188.770 110.368,186.295 110.684,183.600 111.023 C 180.905 111.362,178.668 111.670,178.628 111.708 C 178.534 111.798,181.559 134.826,181.681 134.948 C 181.769 135.036,184.712 134.709,185.809 134.488 L 186.319 134.386 185.751 130.068 C 185.438 127.694,185.211 125.722,185.247 125.686 C 185.282 125.651,186.569 125.438,188.106 125.213 C 195.414 124.145,197.305 122.579,197.296 117.600 C 197.287 112.454,194.085 109.610,189.100 110.321 M208.230 121.519 C 204.672 127.408,201.801 132.268,201.851 132.318 C 201.980 132.447,206.602 133.267,206.682 133.175 C 206.718 133.134,207.352 132.042,208.090 130.750 C 208.895 129.342,209.557 128.400,209.743 128.400 C 210.683 128.400,218.532 129.885,218.700 130.094 C 218.810 130.231,219.115 131.515,219.379 132.947 L 219.857 135.550 222.351 135.985 C 223.723 136.225,224.871 136.394,224.901 136.361 C 224.958 136.300,219.801 111.744,219.712 111.649 C 219.636 111.567,215.356 110.799,215.011 110.806 C 214.816 110.809,212.281 114.815,208.230 121.519 M190.666 114.673 C 193.428 115.827,193.044 119.962,190.099 120.775 C 189.147 121.038,184.813 121.679,184.706 121.573 C 184.573 121.440,183.784 115.150,183.888 115.046 C 184.328 114.606,189.786 114.305,190.666 114.673 M217.129 121.202 C 217.569 123.623,217.901 125.633,217.865 125.668 C 217.714 125.820,211.706 124.658,211.765 124.488 C 211.915 124.051,216.110 116.804,216.214 116.802 C 216.277 116.801,216.689 118.781,217.129 121.202 M235.836 128.434 C 232.611 134.046,230.001 138.666,230.036 138.701 C 230.356 139.011,233.672 140.779,233.794 140.704 C 233.881 140.650,235.603 137.729,237.620 134.213 C 239.638 130.698,241.328 127.861,241.377 127.910 C 241.460 127.993,241.969 141.627,241.990 144.340 L 242.000 145.580 244.049 146.781 C 245.176 147.441,246.159 147.918,246.233 147.841 C 246.483 147.579,257.800 127.796,257.800 127.620 C 257.800 127.347,254.167 125.350,254.008 125.535 C 253.929 125.626,252.163 128.670,250.083 132.300 L 246.300 138.900 246.151 134.800 C 246.069 132.545,245.934 128.411,245.851 125.613 L 245.700 120.527 244.800 120.003 C 244.305 119.714,243.405 119.198,242.800 118.854 L 241.700 118.229 235.836 128.434 M157.700 119.205 C 150.399 120.675,146.178 127.027,148.200 133.500 C 151.375 143.664,160.922 146.818,168.156 140.094 C 176.110 132.701,168.287 117.073,157.700 119.205 M161.313 123.876 C 165.171 125.672,167.861 132.350,166.107 135.777 C 163.096 141.660,155.889 139.945,153.067 132.674 C 150.853 126.970,156.050 121.425,161.313 123.876 M131.449 136.595 C 129.882 138.333,129.400 138.999,129.400 139.426 C 129.400 139.733,129.672 142.881,130.005 146.420 C 130.338 149.960,130.580 152.887,130.544 152.923 C 130.507 152.960,128.780 151.459,126.705 149.589 C 124.631 147.719,122.873 146.214,122.799 146.244 C 122.589 146.332,119.800 149.483,119.800 149.634 C 119.800 149.747,134.980 163.566,136.629 164.955 L 137.169 165.409 138.156 164.355 C 138.699 163.775,139.415 162.985,139.747 162.600 L 140.350 161.900 137.698 159.530 L 135.046 157.159 134.902 154.467 C 134.823 152.987,134.790 151.749,134.829 151.715 C 134.868 151.682,137.690 152.238,141.100 152.951 L 147.300 154.247 148.560 152.873 C 149.252 152.118,150.169 151.089,150.597 150.587 L 151.376 149.674 142.950 148.332 C 138.316 147.594,134.507 146.970,134.486 146.945 C 134.464 146.920,134.293 144.515,134.106 141.600 C 133.918 138.685,133.704 135.855,133.631 135.311 L 133.498 134.322 131.449 136.595 M204.700 137.729 C 204.370 137.765,202.525 137.880,200.600 137.985 C 194.901 138.295,192.424 139.385,188.317 143.390 C 185.288 146.344,184.422 146.862,181.612 147.398 C 170.513 149.513,169.691 155.022,180.300 156.196 C 181.290 156.306,183.402 156.756,184.992 157.196 C 186.796 157.696,188.716 158.078,190.092 158.211 C 192.635 158.458,193.618 158.680,194.603 159.229 C 197.806 161.015,197.398 168.355,193.934 171.255 C 186.912 177.134,182.898 187.761,183.479 198.938 C 184.044 209.841,188.667 217.442,199.345 225.029 C 204.374 228.602,205.810 231.922,208.412 245.989 C 210.075 254.978,210.865 263.771,210.221 266.131 C 209.157 270.038,204.961 271.167,198.485 269.290 C 191.294 267.206,183.974 261.734,185.966 259.931 C 186.863 259.119,188.285 259.840,189.361 261.652 C 192.952 267.698,198.325 265.933,197.008 259.140 C 195.431 251.008,184.162 247.295,178.437 253.020 C 171.485 259.972,178.739 273.881,192.813 280.583 C 208.151 287.887,223.559 280.323,224.962 264.800 C 225.393 260.024,224.441 240.285,223.380 232.000 C 223.161 230.295,222.893 228.197,222.784 227.337 C 222.491 225.039,222.755 223.938,224.118 221.789 C 228.435 214.979,227.404 208.123,221.083 201.600 C 217.673 198.082,217.657 197.963,219.703 191.300 C 224.507 175.654,223.864 159.396,218.059 149.768 C 216.639 147.412,216.345 146.699,215.805 144.296 C 214.559 138.753,211.564 136.982,204.700 137.729 M210.955 140.090 C 212.598 140.777,213.296 142.010,214.091 145.624 C 214.460 147.304,215.045 148.622,216.468 150.982 C 217.824 153.232,217.834 153.324,216.750 153.603 C 212.140 154.790,210.000 155.843,210.000 156.926 C 210.000 157.830,210.485 158.103,212.798 158.502 C 213.842 158.682,214.718 158.851,214.746 158.879 C 214.773 158.906,214.281 159.282,213.653 159.714 C 212.436 160.551,212.057 161.204,212.278 162.085 C 212.497 162.954,213.344 163.170,217.011 163.289 C 220.848 163.413,220.564 163.238,220.732 165.591 L 220.864 167.464 219.569 167.343 C 218.857 167.276,217.515 167.015,216.587 166.761 C 215.292 166.407,214.378 166.300,212.650 166.300 C 210.533 166.300,210.400 166.276,210.399 165.900 C 210.398 165.251,209.720 164.327,208.933 163.904 C 208.094 163.452,208.028 163.282,208.618 163.094 C 209.055 162.956,209.787 161.592,209.797 160.900 C 209.800 160.680,209.937 160.242,210.101 159.927 C 211.060 158.090,209.820 157.165,206.942 157.572 C 204.460 157.923,204.041 158.642,205.229 160.511 C 205.575 161.055,205.941 161.800,206.043 162.167 C 206.154 162.566,206.454 162.964,206.788 163.156 L 207.347 163.477 206.738 163.788 C 205.757 164.290,205.388 164.983,205.176 166.718 C 204.813 169.688,203.060 173.710,202.626 172.568 C 202.213 171.482,199.532 170.000,197.979 170.000 C 197.553 170.000,197.467 169.507,197.850 169.267 C 197.988 169.181,199.347 169.106,200.871 169.101 L 203.641 169.092 204.121 168.535 C 205.380 167.071,203.307 165.120,200.216 164.861 C 199.060 164.764,198.800 164.679,198.800 164.400 C 198.800 164.212,198.742 163.505,198.672 162.829 L 198.543 161.600 199.581 161.600 C 200.763 161.600,201.600 160.994,201.600 160.136 C 201.600 159.486,203.207 158.004,204.766 157.217 C 206.800 156.190,207.878 155.003,208.275 153.353 C 208.461 152.576,209.104 152.233,210.994 151.901 C 214.808 151.231,215.544 149.549,213.209 146.843 C 212.564 146.095,211.714 144.933,211.320 144.261 C 209.437 141.048,207.242 141.201,205.903 144.639 C 205.170 146.521,204.992 146.782,203.883 147.611 C 202.683 148.507,202.085 149.575,201.826 151.280 C 201.592 152.827,200.732 154.715,200.110 155.049 C 198.932 155.683,198.169 155.751,197.683 155.265 C 196.789 154.370,194.210 154.741,192.953 155.945 L 192.407 156.468 190.153 156.238 C 185.642 155.776,185.374 155.543,187.106 153.594 C 188.909 151.563,188.236 150.240,185.832 151.089 C 184.738 151.475,180.588 153.562,180.161 153.941 C 179.533 154.498,175.087 153.260,174.846 152.461 C 174.619 151.708,178.314 150.078,181.950 149.326 C 185.414 148.610,186.330 148.085,189.485 145.007 C 192.195 142.363,193.417 141.552,196.200 140.547 C 198.563 139.694,209.218 139.364,210.955 140.090 M262.700 147.029 C 256.320 149.234,251.036 151.099,250.957 151.172 C 250.852 151.270,252.816 153.801,253.893 154.956 C 253.921 154.986,255.050 154.605,256.401 154.108 C 257.752 153.611,258.966 153.181,259.098 153.152 C 259.231 153.123,260.709 154.702,262.382 156.661 L 265.425 160.222 264.112 162.622 C 263.391 163.942,262.800 165.114,262.800 165.227 C 262.800 165.484,265.770 169.000,265.987 169.000 C 266.132 169.000,277.622 147.422,277.758 146.894 C 277.831 146.612,274.813 142.996,274.516 143.010 C 274.397 143.015,269.080 144.824,262.700 147.029 M210.076 145.220 C 210.503 145.924,211.335 147.070,211.926 147.766 C 213.489 149.608,213.294 149.997,210.600 150.413 C 208.154 150.790,207.187 151.455,206.714 153.083 C 206.351 154.332,205.559 155.130,203.825 155.995 C 203.123 156.345,202.124 157.029,201.604 157.516 C 200.491 158.557,200.561 158.543,199.687 157.876 C 198.836 157.227,198.830 157.084,199.647 156.921 C 201.436 156.563,202.818 154.626,203.315 151.780 C 203.662 149.793,203.763 149.608,204.986 148.710 C 206.101 147.892,206.531 147.275,207.281 145.416 C 208.262 142.987,208.704 142.956,210.076 145.220 M194.148 146.486 C 191.585 147.400,192.060 150.200,194.778 150.200 C 195.421 150.200,195.755 150.355,196.500 151.000 C 197.989 152.289,199.320 151.983,199.788 150.243 C 200.535 147.469,197.346 145.345,194.148 146.486 M197.080 147.879 C 197.848 148.200,198.400 148.891,198.400 149.533 C 198.400 150.251,198.036 150.273,197.272 149.602 C 196.395 148.832,195.815 148.600,194.770 148.600 C 193.746 148.600,193.826 148.196,194.916 147.867 C 195.970 147.549,196.296 147.551,197.080 147.879 M271.294 149.650 C 270.908 150.338,269.903 152.138,269.060 153.650 C 268.217 155.163,267.476 156.394,267.414 156.386 C 267.272 156.369,263.537 151.916,263.462 151.675 C 263.419 151.535,271.302 148.470,271.848 148.415 C 271.930 148.407,271.680 148.963,271.294 149.650 M184.951 153.789 C 184.278 154.812,184.089 154.888,182.900 154.615 C 182.319 154.482,182.351 154.451,183.900 153.649 C 184.780 153.193,185.523 152.815,185.551 152.810 C 185.580 152.804,185.310 153.245,184.951 153.789 M218.655 155.650 C 219.145 156.994,219.446 158.021,219.370 158.089 C 219.298 158.153,212.933 157.024,212.400 156.852 C 212.235 156.799,212.730 156.536,213.500 156.268 C 214.867 155.792,217.978 154.832,218.223 154.811 C 218.290 154.805,218.485 155.183,218.655 155.650 M197.029 157.285 C 197.320 157.765,198.040 158.537,198.629 159.001 C 199.999 160.079,200.028 160.200,198.922 160.200 C 198.119 160.200,197.975 160.131,197.711 159.621 C 197.283 158.794,196.286 157.851,195.327 157.368 C 194.274 156.837,194.253 156.815,194.606 156.592 C 195.423 156.075,196.479 156.377,197.029 157.285 M208.581 159.550 C 208.480 159.853,208.305 160.483,208.191 160.950 C 207.984 161.802,207.400 162.163,207.400 161.439 C 207.400 161.241,207.135 160.661,206.812 160.151 C 206.144 159.098,206.157 159.085,207.933 159.027 C 208.756 159.000,208.763 159.006,208.581 159.550 M218.900 159.667 C 219.759 159.889,219.918 160.009,220.026 160.513 C 220.347 162.003,220.553 161.911,217.117 161.800 C 213.746 161.691,213.519 161.632,214.344 161.086 C 217.007 159.323,217.264 159.243,218.900 159.667 M208.307 165.323 C 208.913 165.720,208.923 166.074,208.365 167.325 C 208.019 168.101,207.926 168.709,207.910 170.300 C 207.892 172.124,207.835 172.405,207.270 173.500 C 205.950 176.054,205.566 177.488,205.414 180.421 C 205.200 184.539,203.339 186.964,200.548 186.761 C 199.407 186.678,199.399 186.353,200.504 184.900 C 202.415 182.389,203.364 179.916,203.893 176.073 C 204.145 174.248,204.325 173.644,205.022 172.301 C 206.138 170.151,206.368 169.440,206.595 167.444 C 206.851 165.195,207.287 164.655,208.307 165.323 M201.725 166.784 C 203.205 167.455,203.007 167.600,200.612 167.600 C 198.428 167.600,198.400 167.594,198.400 167.133 C 198.400 166.271,200.183 166.083,201.725 166.784 M215.932 168.200 C 217.408 168.530,219.158 168.800,219.820 168.800 L 221.024 168.800 220.962 169.550 L 220.900 170.300 219.500 170.299 C 218.327 170.298,217.887 170.192,216.784 169.649 C 214.663 168.603,212.337 168.776,210.767 170.097 C 209.797 170.913,209.322 170.788,209.461 169.751 C 209.738 167.687,211.620 167.236,215.932 168.200 M216.478 171.194 C 217.518 171.729,217.856 171.800,219.356 171.800 L 221.055 171.800 220.918 173.143 C 220.842 173.882,220.744 174.523,220.700 174.567 C 220.610 174.656,219.071 174.302,216.100 173.507 C 214.733 173.142,213.356 172.936,211.750 172.857 C 209.965 172.769,209.400 172.676,209.400 172.471 C 209.400 172.305,209.627 172.200,209.985 172.200 C 210.349 172.200,210.928 171.926,211.522 171.473 C 213.174 170.212,214.431 170.141,216.478 171.194 M198.240 171.625 C 200.123 172.024,201.610 173.000,200.987 173.428 C 200.697 173.626,195.660 173.487,195.079 173.264 C 194.863 173.181,195.008 172.934,195.644 172.308 C 196.612 171.353,196.767 171.312,198.240 171.625 M202.298 176.482 C 202.124 177.656,201.926 178.760,201.859 178.935 C 201.632 179.526,197.789 178.938,196.865 178.171 C 196.647 177.990,196.763 177.767,197.473 177.008 C 197.956 176.492,198.413 175.874,198.489 175.635 C 198.607 175.262,198.775 175.200,199.671 175.200 C 200.364 175.200,201.015 175.047,201.608 174.744 C 202.733 174.168,202.667 173.999,202.298 176.482 M216.790 175.280 C 218.159 175.676,219.434 176.000,219.623 176.000 C 220.421 176.000,220.600 176.222,220.600 177.214 C 220.600 179.176,217.833 179.162,214.447 177.183 C 212.807 176.225,211.758 176.003,209.550 176.144 C 208.588 176.206,207.800 176.202,207.800 176.135 C 207.800 175.772,208.512 174.603,208.783 174.519 C 209.946 174.161,214.380 174.583,216.790 175.280 M196.150 174.927 C 197.200 175.073,197.205 175.193,196.202 176.052 C 195.272 176.848,194.246 177.201,192.877 177.197 C 191.370 177.192,191.319 177.045,192.368 175.737 L 193.300 174.576 194.300 174.692 C 194.850 174.756,195.683 174.862,196.150 174.927 M213.906 178.652 C 215.714 179.722,217.909 180.312,219.366 180.118 C 220.006 180.033,220.211 180.068,220.150 180.252 C 219.938 180.888,216.530 180.963,214.400 180.379 C 211.881 179.688,208.843 179.659,207.150 180.309 C 206.731 180.469,206.698 180.092,207.006 178.660 L 207.212 177.700 209.756 177.700 L 212.300 177.700 213.906 178.652 M193.200 178.654 C 194.925 178.644,195.146 178.686,195.600 179.111 C 196.283 179.750,197.696 180.341,198.900 180.492 C 199.450 180.561,200.189 180.662,200.543 180.717 L 201.186 180.816 200.856 181.508 C 200.468 182.322,200.364 182.333,197.200 181.900 C 193.971 181.458,193.370 181.501,191.610 182.295 C 190.038 183.005,188.092 183.559,187.888 183.355 C 187.746 183.212,188.976 180.616,189.792 179.338 C 190.315 178.519,190.474 178.397,190.853 178.520 C 191.099 178.600,192.155 178.661,193.200 178.654 M213.800 181.861 C 214.950 182.191,215.833 182.290,217.583 182.287 L 219.866 182.283 218.532 182.529 C 217.798 182.664,216.050 183.118,214.649 183.537 C 210.597 184.748,206.900 184.493,206.900 183.002 C 206.900 181.339,210.127 180.805,213.800 181.861 M197.250 183.426 C 199.447 183.677,199.634 183.757,199.087 184.211 C 198.915 184.354,198.643 184.723,198.484 185.032 L 198.194 185.592 197.281 184.896 C 196.019 183.932,194.683 183.933,191.600 184.900 C 190.087 185.374,188.980 185.600,188.167 185.600 C 186.677 185.600,186.642 185.163,188.116 184.975 C 189.600 184.786,190.650 184.457,192.250 183.682 C 193.350 183.148,193.869 183.003,194.400 183.079 C 194.785 183.135,196.067 183.291,197.250 183.426 M219.347 184.986 L 219.152 185.973 217.826 185.865 C 215.263 185.657,212.085 186.374,210.335 187.556 C 209.856 187.879,209.117 188.209,208.693 188.288 C 206.860 188.632,205.618 189.607,204.940 191.234 C 204.405 192.516,201.506 193.604,201.887 192.380 C 202.242 191.242,202.252 189.680,201.907 189.336 C 200.614 188.042,197.612 190.284,197.602 192.550 C 197.598 193.428,195.599 193.011,192.623 191.512 C 190.941 190.665,189.068 190.209,187.250 190.203 C 185.825 190.200,185.794 190.134,186.269 188.123 L 186.500 187.146 188.300 187.092 C 189.719 187.049,190.587 186.882,192.400 186.304 C 195.069 185.454,195.673 185.472,196.794 186.440 C 199.812 189.044,202.284 188.965,205.029 186.179 L 206.158 185.032 207.029 185.359 C 208.838 186.038,212.660 185.811,215.700 184.846 C 217.130 184.392,218.580 184.015,218.921 184.010 L 219.542 184.000 219.347 184.986 M218.732 187.687 C 218.672 187.846,218.519 188.363,218.392 188.837 C 218.266 189.312,217.900 190.521,217.580 191.524 L 216.998 193.349 213.749 193.524 C 209.847 193.735,209.247 193.705,208.768 193.271 C 207.310 191.951,210.316 188.661,213.850 187.709 C 215.326 187.312,218.883 187.296,218.732 187.687 M200.095 192.788 C 199.293 195.400,199.200 197.074,199.725 199.437 C 199.946 200.431,200.041 201.734,200.022 203.503 C 199.987 206.630,200.328 208.197,201.670 211.068 C 202.721 213.318,202.591 213.339,200.402 211.275 C 198.008 209.015,197.540 207.260,198.324 203.468 C 198.542 202.414,198.664 200.654,198.695 198.100 C 198.743 194.285,198.784 193.901,199.333 192.153 C 199.582 191.359,200.504 190.238,200.726 190.459 C 200.761 190.494,200.477 191.542,200.095 192.788 M207.085 191.305 C 206.909 191.727,206.797 192.410,206.836 192.823 C 206.915 193.643,206.684 193.805,204.171 194.690 C 202.601 195.243,202.406 196.579,203.790 197.295 C 204.108 197.459,205.478 197.780,206.834 198.009 C 211.883 198.858,212.269 198.889,214.308 198.609 C 216.626 198.291,216.564 198.234,215.539 199.754 L 214.700 200.998 213.600 200.884 C 210.374 200.550,208.404 199.999,205.923 198.734 C 204.563 198.041,204.123 197.918,202.723 197.839 C 200.683 197.723,200.453 197.355,201.019 195.109 L 201.237 194.241 202.784 194.170 C 204.665 194.085,205.519 193.547,206.327 191.938 C 207.166 190.265,207.709 189.813,207.085 191.305 M189.700 192.015 C 190.140 192.132,191.455 192.675,192.623 193.221 C 193.790 193.767,195.301 194.317,195.979 194.443 L 197.212 194.673 197.156 197.086 L 197.100 199.500 196.100 199.448 C 194.655 199.373,193.441 198.922,190.431 197.344 C 188.963 196.574,187.253 195.787,186.631 195.595 C 185.373 195.206,185.471 195.453,185.561 192.900 L 185.600 191.800 187.250 191.801 C 188.158 191.802,189.260 191.898,189.700 192.015 M209.600 195.126 C 210.095 195.187,211.845 195.140,213.489 195.024 C 216.949 194.778,216.635 194.690,216.475 195.859 C 216.349 196.776,216.341 196.785,215.424 196.942 C 213.873 197.207,210.401 197.117,208.500 196.761 C 207.510 196.576,206.301 196.363,205.814 196.288 L 204.928 196.153 206.314 195.486 C 207.196 195.063,207.882 194.856,208.200 194.918 C 208.475 194.972,209.105 195.066,209.600 195.126 M189.900 198.806 C 193.599 200.644,194.595 200.987,196.263 200.995 C 197.084 200.999,197.212 201.052,197.128 201.350 C 197.074 201.543,196.923 202.364,196.793 203.175 L 196.555 204.650 195.124 204.558 C 193.799 204.473,193.396 204.320,189.665 202.483 C 185.198 200.283,185.407 200.492,185.403 198.237 C 185.399 196.442,185.053 196.398,189.900 198.806 M205.800 200.401 C 208.158 201.497,209.460 201.871,212.157 202.228 C 213.483 202.404,213.987 202.545,213.919 202.723 C 213.866 202.860,213.767 203.273,213.698 203.642 L 213.572 204.313 211.512 204.007 C 209.588 203.720,209.395 203.649,208.600 202.927 C 207.376 201.817,206.329 201.427,203.867 201.167 C 201.343 200.900,201.605 201.011,201.406 200.126 C 201.121 198.864,202.707 198.963,205.800 200.401 M218.069 201.327 L 219.011 202.354 218.783 203.734 C 218.435 205.842,218.740 207.291,220.119 210.095 C 221.251 212.397,221.268 212.456,221.036 213.323 C 220.588 215.000,220.730 216.266,221.600 218.348 C 222.533 220.581,222.542 220.666,221.950 221.536 C 221.206 222.629,220.877 222.425,220.739 220.783 C 220.633 219.511,220.414 218.940,218.621 215.233 C 214.762 207.260,214.324 204.435,216.435 201.145 C 216.774 200.617,217.069 200.211,217.089 200.242 C 217.110 200.274,217.551 200.762,218.069 201.327 M189.325 204.022 C 192.590 205.736,193.318 205.995,195.032 206.046 L 196.400 206.087 196.400 206.719 C 196.400 207.066,196.454 207.620,196.520 207.951 L 196.640 208.552 195.270 208.787 C 194.517 208.917,192.939 209.243,191.764 209.511 C 190.590 209.780,189.271 210.000,188.833 210.000 L 188.037 210.000 187.419 208.516 C 186.867 207.189,185.801 203.318,185.800 202.637 C 185.800 202.245,186.363 202.467,189.325 204.022 M205.800 203.017 C 207.015 203.435,207.098 203.618,206.256 204.020 C 205.840 204.219,205.119 204.671,204.653 205.024 C 204.012 205.511,203.547 205.688,202.733 205.756 C 201.426 205.864,201.316 205.689,201.515 203.827 L 201.653 202.544 203.376 202.660 C 204.324 202.724,205.415 202.885,205.800 203.017 M221.299 204.650 C 224.535 208.420,225.567 213.474,223.970 217.732 L 223.531 218.900 223.168 218.100 C 222.191 215.946,222.099 215.337,222.506 213.703 L 222.881 212.195 221.822 210.068 C 220.415 207.246,220.200 206.584,220.200 205.075 C 220.200 203.571,220.329 203.521,221.299 204.650 M212.044 205.625 C 213.701 205.860,213.656 205.820,213.893 207.300 C 213.964 207.740,214.068 208.257,214.124 208.450 C 214.350 209.218,209.172 208.750,207.846 207.883 C 207.244 207.489,206.176 206.000,206.324 205.761 C 206.690 205.169,208.526 205.125,212.044 205.625 M205.370 207.450 C 206.671 209.553,209.793 210.661,213.426 210.309 C 214.739 210.182,214.753 210.186,214.886 210.714 C 215.080 211.490,215.076 211.491,211.540 211.432 C 209.758 211.403,207.200 211.361,205.857 211.339 L 203.413 211.300 202.819 209.884 C 201.909 207.716,201.860 207.403,202.428 207.384 C 202.688 207.375,203.305 207.252,203.800 207.110 C 204.295 206.968,204.760 206.840,204.834 206.826 C 204.907 206.812,205.148 207.093,205.370 207.450 M197.744 211.548 C 194.252 211.809,192.292 212.123,190.366 212.733 C 190.068 212.827,190.075 212.751,190.424 212.045 C 190.859 211.165,190.815 211.181,195.100 210.402 L 197.100 210.038 197.744 210.769 L 198.389 211.500 197.744 211.548 M208.785 212.915 C 210.629 213.172,211.426 213.191,213.035 213.015 C 214.124 212.897,215.175 212.800,215.371 212.800 C 215.733 212.800,216.480 214.053,216.254 214.280 C 216.030 214.503,213.499 214.402,211.192 214.078 C 207.229 213.522,204.302 213.981,204.436 215.139 C 204.486 215.568,204.647 215.729,205.176 215.880 C 205.566 215.991,206.543 216.714,207.489 217.590 C 208.657 218.672,209.410 219.201,210.113 219.434 L 211.100 219.762 210.076 219.781 C 208.320 219.814,205.609 220.380,202.762 221.308 C 199.455 222.386,198.960 222.408,197.927 221.523 C 196.718 220.488,197.838 219.267,200.711 218.490 C 202.058 218.125,202.583 217.503,202.019 216.939 C 201.513 216.433,198.977 216.523,197.388 217.102 C 193.478 218.526,192.895 218.104,195.387 215.650 C 197.526 213.545,199.775 212.951,201.342 214.077 C 202.933 215.220,204.200 214.965,204.200 213.500 C 204.200 212.506,205.055 212.397,208.785 212.915 M194.972 213.916 C 194.486 214.311,193.776 215.071,193.394 215.607 C 193.012 216.143,192.655 216.581,192.600 216.581 C 192.476 216.581,190.800 214.497,190.800 214.344 C 190.800 214.060,193.931 213.294,195.378 213.223 C 195.797 213.203,195.747 213.288,194.972 213.916 M211.915 215.716 C 213.307 215.917,214.663 215.988,215.650 215.911 L 217.201 215.791 217.638 216.691 C 218.162 217.769,218.109 217.840,216.643 218.023 C 212.383 218.556,210.359 218.188,208.709 216.583 L 207.500 215.408 208.615 215.404 C 209.229 215.402,210.714 215.542,211.915 215.716 M196.200 219.367 C 196.200 219.627,195.962 219.800,195.769 219.681 C 195.562 219.553,195.740 219.200,196.012 219.200 C 196.115 219.200,196.200 219.275,196.200 219.367 M218.970 219.695 C 219.027 219.988,218.950 220.033,218.570 219.931 C 218.312 219.862,217.605 219.793,217.000 219.778 L 215.900 219.751 217.200 219.501 C 218.739 219.206,218.878 219.221,218.970 219.695 M218.750 221.498 C 219.736 221.823,219.055 221.953,215.850 222.052 C 211.961 222.173,210.661 222.455,207.046 223.966 C 203.457 225.467,203.255 225.518,202.735 225.049 C 202.496 224.833,201.946 224.422,201.514 224.136 C 200.995 223.791,200.826 223.584,201.014 223.523 C 201.171 223.473,202.425 223.068,203.800 222.623 C 206.056 221.894,207.547 221.560,209.600 221.325 C 210.737 221.194,218.260 221.337,218.750 221.498 M220.478 223.790 C 220.736 223.885,220.232 223.981,219.092 224.054 C 216.537 224.218,215.295 224.603,211.900 226.282 C 209.170 227.633,206.977 228.400,205.844 228.400 C 205.572 228.400,205.229 228.127,204.907 227.654 C 204.358 226.846,204.287 226.600,204.603 226.600 C 204.714 226.600,205.977 226.107,207.408 225.504 C 211.933 223.599,217.860 222.821,220.478 223.790 M220.758 226.923 L 220.816 228.346 217.758 228.453 C 213.648 228.598,211.659 229.260,208.631 231.492 C 207.932 232.007,207.328 232.395,207.287 232.354 C 207.203 232.270,206.200 230.025,206.200 229.920 C 206.200 229.882,206.642 229.793,207.182 229.721 C 208.633 229.529,210.204 228.936,212.475 227.723 C 215.333 226.196,218.104 225.365,220.000 225.463 L 220.700 225.500 220.758 226.923 M221.144 230.084 C 221.168 230.104,221.247 230.632,221.321 231.256 C 221.494 232.731,221.434 232.751,218.173 232.304 C 213.455 231.658,211.573 232.068,209.271 234.245 L 208.209 235.250 207.997 234.692 C 207.755 234.056,207.669 234.166,209.469 232.815 C 212.530 230.517,215.229 229.720,219.200 229.942 C 220.245 230.000,221.120 230.064,221.144 230.084 M217.200 233.700 C 218.135 233.865,219.498 234.000,220.229 234.000 C 221.722 234.000,221.800 234.074,221.800 235.479 L 221.800 236.326 220.650 236.247 C 216.721 235.977,214.221 236.634,211.041 238.772 L 209.227 239.992 209.002 238.846 C 208.878 238.216,208.733 237.571,208.681 237.414 C 208.624 237.245,209.181 236.544,210.046 235.695 C 212.312 233.473,213.705 233.084,217.200 233.700 M221.700 237.990 C 221.480 238.080,220.432 238.483,219.372 238.887 C 216.246 240.074,214.822 241.319,214.415 243.218 C 213.971 245.288,214.527 245.574,216.940 244.517 C 219.898 243.223,222.401 242.742,222.398 243.469 C 222.396 243.852,221.858 244.085,217.521 245.574 C 212.423 247.325,211.452 247.818,211.680 248.538 C 211.870 249.135,212.466 249.200,217.713 249.200 C 222.490 249.200,224.414 249.509,220.407 249.632 C 216.674 249.748,216.668 250.303,220.369 253.600 C 223.357 256.261,223.341 256.237,221.388 255.200 C 217.182 252.968,217.286 256.345,221.556 260.650 C 222.511 261.613,223.230 262.400,223.156 262.400 C 223.081 262.400,222.291 262.080,221.401 261.688 C 218.068 260.223,217.455 260.940,219.460 263.958 C 220.741 265.888,222.299 268.767,222.145 268.922 C 222.101 268.966,221.636 268.468,221.112 267.815 C 220.120 266.579,219.868 266.400,219.116 266.400 C 218.351 266.400,218.127 267.220,218.041 270.345 L 217.963 273.190 217.157 271.984 C 214.715 268.326,213.683 269.779,213.026 277.800 C 212.845 280.005,212.797 279.934,212.221 276.628 C 211.363 271.701,210.092 272.390,207.295 279.300 C 206.983 280.070,206.670 280.770,206.598 280.856 C 206.526 280.942,206.475 279.727,206.484 278.156 L 206.500 275.300 205.845 275.237 C 204.909 275.147,204.011 275.780,202.993 277.247 C 201.742 279.050,200.848 280.123,200.293 280.486 C 199.723 280.859,199.710 280.910,200.942 278.043 C 202.038 275.491,201.746 275.308,198.116 276.275 C 195.952 276.852,192.954 277.269,191.718 277.166 L 190.936 277.100 192.868 275.859 C 195.947 273.882,195.697 273.569,190.585 272.995 C 187.113 272.605,185.118 272.257,184.024 271.849 C 183.403 271.618,184.428 270.704,186.342 269.784 C 188.157 268.912,188.299 268.204,186.741 267.784 C 184.461 267.170,178.000 263.141,178.000 262.333 C 178.000 262.276,178.827 262.589,179.838 263.027 C 182.646 264.245,182.906 264.061,182.211 261.345 C 181.045 256.782,181.590 252.807,183.437 252.411 C 184.791 252.120,184.769 252.109,184.541 252.962 C 184.218 254.173,184.474 254.695,186.005 255.946 C 187.611 257.258,187.740 257.600,186.630 257.600 C 184.350 257.600,182.967 260.157,184.039 262.387 C 185.564 265.560,193.482 270.294,199.435 271.591 C 207.725 273.398,212.144 270.790,212.365 263.960 C 212.510 259.459,211.313 249.706,209.690 242.164 C 209.524 241.392,213.985 238.378,215.829 238.015 C 216.955 237.794,222.236 237.772,221.700 237.990 M222.230 240.300 C 222.247 240.685,222.269 241.109,222.280 241.241 C 222.293 241.393,221.690 241.577,220.655 241.738 C 219.254 241.955,218.517 242.190,216.219 243.149 C 216.009 243.237,216.028 243.114,216.294 242.664 C 216.854 241.715,218.455 240.799,221.400 239.739 C 222.047 239.507,222.200 239.610,222.230 240.300 M222.600 246.700 L 222.600 247.800 220.350 247.798 C 216.155 247.794,216.060 247.683,219.302 246.582 C 222.835 245.382,222.600 245.373,222.600 246.700 M222.872 252.233 C 223.041 253.848,223.029 253.850,221.480 252.490 C 220.001 251.192,220.036 251.041,221.822 251.014 L 222.743 251.000 222.872 252.233 M187.901 252.471 C 190.402 253.138,193.091 254.947,192.518 255.580 C 191.869 256.297,191.744 257.104,192.094 258.308 C 192.442 259.506,192.363 259.792,191.565 260.219 C 191.024 260.508,189.000 258.420,189.000 257.572 C 189.000 256.643,188.500 255.901,187.202 254.901 C 185.917 253.913,185.830 253.708,186.305 252.790 C 186.657 252.110,186.592 252.123,187.901 252.471 M127.579 261.550 C 122.793 265.813,118.850 269.377,118.816 269.471 C 118.542 270.220,128.707 280.604,130.199 281.100 C 135.196 282.759,140.184 278.189,138.494 273.500 C 138.336 273.060,138.205 272.682,138.203 272.660 C 138.201 272.639,138.477 272.717,138.816 272.836 C 142.466 274.108,146.222 270.998,145.956 266.924 C 145.807 264.646,145.561 264.282,139.724 257.700 C 137.968 255.720,136.475 254.033,136.406 253.950 C 136.337 253.868,132.365 257.288,127.579 261.550 M180.233 256.419 C 180.196 257.750,180.268 259.425,180.393 260.143 C 180.679 261.785,180.716 261.764,179.009 260.905 L 177.578 260.184 177.707 259.242 C 178.028 256.905,179.429 254.003,180.239 254.000 C 180.272 254.000,180.270 255.088,180.233 256.419 M222.130 257.425 C 222.876 257.935,223.555 259.800,222.994 259.800 C 222.572 259.800,220.400 257.040,220.400 256.503 C 220.400 256.349,221.099 256.722,222.130 257.425 M194.533 257.750 C 195.270 259.259,195.382 262.625,194.712 263.116 C 194.064 263.590,193.435 263.447,192.554 262.625 L 191.723 261.850 192.311 261.544 C 193.778 260.782,194.195 259.620,193.596 257.965 C 193.012 256.348,193.764 256.175,194.533 257.750 M262.149 258.017 C 259.064 258.744,255.139 262.402,253.801 265.798 C 250.136 275.096,261.468 285.521,270.509 281.168 C 274.646 279.175,278.305 273.839,278.630 269.321 L 278.700 268.343 275.338 265.159 C 273.490 263.407,271.908 262.003,271.824 262.037 C 271.565 262.144,265.000 269.181,265.000 269.353 C 265.000 269.512,266.788 271.289,267.439 271.777 C 267.735 271.999,268.011 271.788,269.639 270.100 L 271.500 268.170 272.597 269.157 L 273.694 270.144 273.454 271.289 C 271.905 278.676,264.405 279.882,259.377 273.552 C 255.169 268.254,259.094 261.324,265.408 262.904 C 265.855 263.015,268.679 259.372,268.357 259.099 C 267.190 258.110,264.065 257.566,262.149 258.017 M139.665 263.606 C 141.871 266.202,142.092 267.414,140.591 268.677 C 138.937 270.069,137.719 269.543,134.625 266.101 L 132.409 263.637 134.455 261.806 L 136.500 259.976 137.358 260.938 C 137.829 261.467,138.868 262.668,139.665 263.606 M222.997 264.890 C 222.991 266.337,222.734 266.320,221.835 264.812 C 220.805 263.086,220.796 263.148,222.000 263.657 C 222.967 264.065,223.000 264.106,222.997 264.890 M181.700 267.046 C 182.360 267.434,183.326 267.976,183.848 268.249 L 184.795 268.746 183.689 269.573 C 183.081 270.028,182.544 270.400,182.497 270.400 C 182.344 270.400,180.274 267.537,179.682 266.506 L 179.110 265.512 179.805 265.926 C 180.187 266.154,181.040 266.658,181.700 267.046 M131.595 268.600 C 135.477 273.000,135.818 274.833,133.039 276.367 C 131.297 277.328,130.183 276.612,126.039 271.866 L 124.787 270.431 127.043 268.412 C 129.717 266.019,129.303 266.002,131.595 268.600 M221.392 270.757 C 221.400 271.029,220.558 272.771,220.023 273.589 L 219.703 274.078 219.563 273.289 C 219.376 272.234,219.363 268.904,219.545 268.722 C 219.716 268.550,221.381 270.384,221.392 270.757 M245.350 272.470 C 243.212 273.728,242.968 272.812,247.489 280.479 C 249.550 283.973,251.196 286.870,251.148 286.918 C 251.101 286.966,247.650 285.192,243.481 282.976 C 239.311 280.760,235.717 278.863,235.493 278.761 C 235.149 278.604,231.917 280.217,231.261 280.873 C 231.195 280.938,242.758 300.751,243.100 301.157 C 243.269 301.359,246.800 299.058,246.734 298.789 C 246.675 298.547,241.928 290.386,239.549 286.434 L 239.147 285.768 240.324 286.364 C 240.971 286.691,244.505 288.544,248.177 290.480 C 251.849 292.416,254.972 294.000,255.116 294.000 C 255.498 294.000,259.228 291.780,259.159 291.594 C 259.001 291.168,247.287 271.410,247.200 271.424 C 247.145 271.432,246.313 271.903,245.350 272.470 M216.695 274.288 C 217.827 276.640,217.855 276.560,215.238 278.383 C 214.399 278.967,214.435 279.080,214.637 276.500 C 215.011 271.740,215.313 271.415,216.695 274.288 M146.311 280.505 C 140.817 284.517,136.244 287.876,136.150 287.970 C 136.054 288.066,136.910 288.736,138.086 289.486 L 140.194 290.831 142.247 289.250 C 143.376 288.381,144.405 287.608,144.534 287.533 C 144.724 287.422,151.865 291.793,152.467 292.389 C 152.559 292.479,152.395 293.738,152.103 295.185 C 151.811 296.633,151.601 297.902,151.636 298.006 C 151.738 298.308,155.687 300.792,155.822 300.639 C 155.889 300.563,156.955 295.145,158.191 288.600 C 159.427 282.055,160.479 276.517,160.530 276.294 C 160.605 275.960,156.815 273.156,156.357 273.206 C 156.326 273.210,151.805 276.494,146.311 280.505 M189.500 274.401 C 190.490 274.509,191.435 274.598,191.600 274.599 C 191.765 274.600,191.360 274.961,190.700 275.400 C 189.208 276.393,189.326 276.402,187.730 275.193 C 186.215 274.046,186.148 273.939,187.050 274.093 C 187.408 274.155,188.510 274.293,189.500 274.401 M210.904 277.688 C 211.402 280.289,211.388 280.336,210.050 280.710 C 209.418 280.887,208.741 281.076,208.547 281.130 C 208.221 281.221,208.226 281.148,208.608 280.164 C 209.197 278.646,210.451 275.984,210.536 276.069 C 210.576 276.109,210.741 276.837,210.904 277.688 M205.000 279.300 L 205.000 281.400 203.500 281.400 C 201.725 281.400,201.762 281.499,202.950 279.938 C 203.472 279.251,204.125 278.355,204.400 277.946 C 204.675 277.537,204.923 277.202,204.950 277.201 C 204.978 277.201,205.000 278.145,205.000 279.300 M199.400 277.683 C 199.400 277.729,199.211 278.202,198.981 278.733 C 198.750 279.265,198.485 279.895,198.392 280.134 C 198.191 280.646,197.638 280.528,194.883 279.379 L 193.300 278.720 195.600 278.365 C 196.865 278.171,198.170 277.926,198.500 277.823 C 199.209 277.600,199.400 277.571,199.400 277.683 M154.498 283.738 C 153.978 286.137,153.529 288.127,153.500 288.160 C 153.406 288.266,148.203 284.904,148.252 284.768 C 148.321 284.578,155.286 279.243,155.371 279.315 C 155.411 279.349,155.017 281.339,154.498 283.738 M168.233 282.742 C 167.901 283.819,166.396 288.795,164.889 293.800 C 163.382 298.805,162.113 302.994,162.069 303.108 C 161.977 303.348,166.037 304.648,166.223 304.439 C 166.291 304.362,167.271 301.195,168.403 297.400 C 169.534 293.605,170.520 290.382,170.594 290.238 C 170.669 290.094,171.767 293.874,173.035 298.638 L 175.340 307.300 177.020 307.849 C 178.779 308.424,180.000 308.711,180.000 308.549 C 180.000 308.496,181.485 303.526,183.300 297.503 C 185.115 291.480,186.600 286.450,186.600 286.325 C 186.600 286.108,182.674 284.853,182.519 285.020 C 182.478 285.064,181.473 288.340,180.287 292.300 C 179.101 296.260,178.076 299.565,178.011 299.644 C 177.945 299.724,176.866 295.879,175.612 291.101 C 174.358 286.323,173.280 282.332,173.216 282.232 C 173.121 282.084,171.711 281.613,169.168 280.880 C 168.900 280.803,168.719 281.163,168.233 282.742 M226.200 282.542 C 225.155 282.822,224.272 283.076,224.237 283.106 C 224.202 283.135,225.045 286.476,226.110 290.530 C 228.534 299.752,228.635 300.663,227.399 302.071 C 225.817 303.872,222.285 304.287,220.600 302.870 C 219.479 301.926,219.240 301.195,216.094 289.073 L 215.152 285.446 212.926 286.044 C 211.702 286.373,210.673 286.667,210.640 286.697 C 210.363 286.955,214.809 302.628,215.612 304.221 C 219.091 311.128,233.000 307.823,233.000 300.089 C 233.000 298.453,232.603 296.630,230.496 288.596 C 229.563 285.039,228.800 282.100,228.800 282.065 C 228.800 281.913,227.980 282.063,226.200 282.542 M189.131 289.619 C 189.062 291.313,188.947 296.637,188.875 301.450 L 188.745 310.200 192.722 310.250 C 200.417 310.347,201.579 310.226,203.810 309.095 C 209.409 306.258,210.521 294.471,205.669 289.385 C 203.566 287.180,202.183 286.837,194.678 286.663 L 189.257 286.537 189.131 289.619 M198.113 290.784 C 202.198 291.123,203.543 292.702,203.748 297.400 C 203.954 302.107,203.082 304.700,200.900 305.867 C 200.093 306.299,194.079 306.546,193.696 306.163 C 193.620 306.087,193.625 302.554,193.706 298.313 L 193.854 290.600 194.977 290.609 C 195.595 290.614,197.006 290.693,198.113 290.784 " stroke="none" fill="#050507" fill-rule="evenodd"></path><path id="path2" d="M195.700 57.282 C 140.560 76.464,92.885 111.178,58.133 157.452 L 55.616 160.803 55.716 164.852 C 57.187 224.402,74.867 279.102,107.945 326.448 L 110.843 330.596 113.471 331.423 C 168.989 348.879,230.255 348.968,285.988 331.674 C 287.906 331.078,289.492 330.571,289.512 330.546 C 293.514 325.501,303.496 309.668,308.925 299.752 C 331.522 258.481,344.571 208.850,344.598 164.073 L 344.600 160.647 341.680 156.788 C 306.948 110.882,259.649 76.484,205.048 57.424 C 199.522 55.495,200.782 55.514,195.700 57.282 M204.832 63.278 C 257.592 81.551,302.403 114.113,335.565 158.275 L 338.400 162.050 338.398 166.775 C 338.378 217.190,321.570 271.380,292.383 315.133 C 285.804 324.994,286.083 324.699,282.160 325.929 C 260.924 332.585,240.473 336.329,216.000 338.041 C 210.240 338.444,189.024 338.381,182.900 337.942 C 159.513 336.267,138.209 332.293,117.763 325.793 L 114.627 324.796 112.525 321.826 C 80.431 276.477,63.337 224.525,61.878 167.895 C 61.720 161.762,61.436 162.709,64.771 158.247 C 97.459 114.520,142.828 81.521,195.200 63.379 C 200.657 61.489,199.697 61.499,204.832 63.278 M194.300 104.937 C 132.112 108.143,86.416 165.580,96.821 227.461 C 104.568 273.538,142.920 309.314,189.583 313.994 C 251.311 320.184,304.967 271.729,304.998 209.766 C 305.028 149.489,254.695 101.824,194.300 104.937 M193.060 110.489 C 198.596 112.463,199.172 121.279,193.939 123.931 C 192.775 124.521,190.289 125.086,187.390 125.420 L 185.280 125.663 185.730 129.081 C 185.977 130.962,186.238 132.961,186.310 133.525 L 186.440 134.550 184.370 134.795 C 183.231 134.930,182.125 135.053,181.911 135.070 C 181.560 135.097,178.195 111.952,178.503 111.633 C 178.539 111.595,180.533 111.308,182.934 110.994 C 185.335 110.679,187.570 110.386,187.900 110.341 C 189.335 110.147,192.344 110.233,193.060 110.489 M217.649 111.123 C 219.202 111.382,219.823 111.567,219.887 111.790 C 220.195 112.877,225.059 136.405,224.988 136.468 C 224.763 136.667,219.957 135.672,219.811 135.396 C 219.725 135.233,219.447 133.953,219.194 132.550 C 218.941 131.148,218.681 129.999,218.617 129.998 C 218.553 129.998,216.482 129.638,214.015 129.200 C 211.548 128.762,209.516 128.425,209.499 128.452 C 209.482 128.478,208.856 129.580,208.108 130.900 C 207.360 132.220,206.737 133.314,206.724 133.331 C 206.624 133.462,201.773 132.455,201.754 132.300 C 201.683 131.709,214.714 110.604,215.100 110.683 C 215.320 110.728,216.467 110.926,217.649 111.123 M185.400 114.869 L 183.900 115.100 184.306 118.239 C 184.529 119.966,184.755 121.413,184.806 121.455 C 185.048 121.651,189.925 120.775,190.711 120.395 C 192.620 119.470,193.039 116.946,191.534 115.440 L 190.794 114.700 188.847 114.669 C 187.776 114.653,186.225 114.743,185.400 114.869 M213.956 120.747 C 212.777 122.800,211.835 124.501,211.861 124.528 C 211.969 124.635,217.656 125.610,217.732 125.534 C 217.831 125.435,216.450 117.843,216.245 117.357 C 216.138 117.104,215.542 117.987,213.956 120.747 M243.792 119.305 L 245.744 120.410 245.868 122.755 C 245.936 124.045,246.050 127.755,246.121 131.000 C 246.310 139.662,245.824 139.569,250.285 131.797 L 254.070 125.203 254.885 125.676 C 255.333 125.936,256.218 126.439,256.850 126.794 C 257.483 127.148,258.000 127.479,258.000 127.529 C 258.000 127.764,246.280 148.000,246.144 148.000 C 246.059 148.000,245.097 147.489,244.008 146.865 L 242.028 145.731 241.919 144.315 C 241.859 143.537,241.710 139.570,241.588 135.500 C 241.465 131.430,241.347 128.081,241.324 128.058 C 241.301 128.034,239.632 130.894,237.615 134.412 C 235.598 137.930,233.892 140.842,233.824 140.882 C 233.659 140.980,229.804 138.759,229.886 138.613 C 230.188 138.076,240.234 120.586,240.835 119.550 C 241.770 117.937,241.425 117.965,243.792 119.305 M162.643 119.397 C 168.249 121.128,172.735 129.133,171.384 134.994 C 170.125 140.457,163.185 144.766,157.560 143.576 C 150.435 142.068,145.405 131.919,148.624 125.544 C 151.042 120.754,157.653 117.856,162.643 119.397 M157.174 123.701 C 152.170 125.307,151.165 130.260,154.747 135.666 C 159.220 142.417,168.541 138.473,166.280 130.786 C 164.741 125.552,160.847 122.522,157.174 123.701 M134.067 139.750 C 134.260 142.803,134.465 145.660,134.524 146.101 L 134.631 146.901 142.832 148.201 C 147.343 148.915,151.133 149.561,151.254 149.635 C 151.454 149.757,150.588 150.820,148.000 153.625 L 147.300 154.384 141.127 153.081 C 137.733 152.365,134.925 151.808,134.889 151.844 C 134.854 151.880,134.905 153.077,135.005 154.505 L 135.185 157.100 136.843 158.600 C 137.754 159.425,138.948 160.520,139.495 161.033 L 140.490 161.965 138.872 163.733 C 137.981 164.705,137.207 165.500,137.150 165.500 C 136.995 165.500,119.599 149.756,119.603 149.619 C 119.605 149.554,120.348 148.708,121.253 147.740 L 122.900 145.980 126.650 149.396 C 130.061 152.503,130.400 152.761,130.399 152.256 C 130.398 151.950,130.128 148.832,129.797 145.326 L 129.197 138.952 129.848 138.222 C 132.585 135.157,133.474 134.200,133.586 134.200 C 133.657 134.200,133.874 136.697,134.067 139.750 M210.753 137.885 C 213.616 138.647,215.304 140.743,215.896 144.271 C 216.167 145.883,216.827 147.578,217.818 149.210 C 223.851 159.142,224.711 174.852,220.073 190.400 C 217.776 198.101,217.788 198.255,220.909 201.248 C 227.385 207.460,228.589 215.079,224.174 221.907 C 222.583 224.367,222.534 224.845,223.287 230.466 C 224.534 239.773,225.586 260.564,225.042 265.157 C 222.987 282.496,204.808 289.011,188.500 278.255 C 179.693 272.446,174.703 264.502,175.795 258.027 C 177.729 246.564,195.571 248.095,197.208 259.864 C 198.050 265.918,192.730 267.611,189.680 262.258 C 188.304 259.842,186.409 258.883,185.772 260.281 C 184.677 262.684,194.196 268.612,201.073 269.810 C 209.863 271.341,211.562 267.997,209.495 253.240 C 207.073 235.941,204.591 228.755,199.940 225.570 C 188.042 217.421,183.494 209.486,183.504 196.900 C 183.514 185.731,186.172 178.821,193.109 171.932 C 196.024 169.036,196.702 167.421,196.566 163.697 C 196.420 159.689,195.360 158.887,189.300 158.205 C 188.310 158.094,186.201 157.643,184.614 157.204 C 182.967 156.749,180.842 156.316,179.663 156.196 C 169.426 155.155,170.804 149.418,181.818 147.223 C 184.477 146.693,185.118 146.304,188.096 143.419 C 192.240 139.403,195.226 138.063,200.600 137.809 C 206.008 137.552,209.605 137.580,210.753 137.885 M276.374 144.800 C 277.267 145.845,277.976 146.755,277.949 146.823 C 277.639 147.602,266.103 169.200,265.997 169.200 C 265.860 169.200,263.049 165.976,262.732 165.455 C 262.644 165.311,263.130 164.215,263.907 162.802 C 264.635 161.478,265.202 160.314,265.166 160.216 C 265.071 159.960,259.349 153.200,259.226 153.200 C 259.170 153.200,258.019 153.616,256.668 154.124 C 255.318 154.632,254.087 155.000,253.934 154.941 C 253.631 154.824,250.509 151.216,250.627 151.119 C 250.785 150.989,274.508 142.828,274.625 142.863 C 274.694 142.883,275.481 143.755,276.374 144.800 M267.700 150.033 C 265.610 150.809,263.823 151.516,263.728 151.604 C 263.581 151.741,267.009 156.003,267.388 156.154 C 267.462 156.183,268.214 154.968,269.061 153.454 C 269.907 151.939,270.871 150.228,271.204 149.650 C 271.536 149.072,271.739 148.605,271.654 148.611 C 271.569 148.617,269.790 149.257,267.700 150.033 M139.532 257.340 C 145.583 264.101,146.103 264.898,146.096 267.400 C 146.085 271.178,142.606 273.993,139.132 273.034 C 138.445 272.845,138.380 272.858,138.506 273.161 C 140.185 277.220,136.999 281.498,132.300 281.495 C 129.401 281.493,128.776 281.014,122.442 273.935 L 118.537 269.570 119.119 268.994 C 120.212 267.910,136.100 253.809,136.232 253.804 C 136.305 253.802,137.790 255.393,139.532 257.340 M267.272 258.450 C 268.640 259.090,268.651 258.936,267.061 261.444 C 266.255 262.715,265.851 263.185,265.634 263.102 C 260.665 261.195,255.926 266.813,258.319 271.773 C 259.103 273.397,261.712 275.935,263.505 276.817 C 267.788 278.924,272.264 276.420,273.363 271.300 L 273.578 270.300 272.560 269.264 L 271.542 268.229 269.621 270.215 L 267.700 272.201 266.204 270.824 L 264.709 269.447 266.037 267.973 C 266.767 267.163,268.385 265.436,269.632 264.135 L 271.900 261.770 275.350 265.005 C 279.266 268.677,279.103 268.350,278.398 271.107 C 276.684 277.808,270.990 282.729,265.393 282.347 C 260.032 281.981,254.617 277.356,253.276 272.000 C 251.292 264.074,260.412 255.245,267.272 258.450 M134.488 261.927 L 132.576 263.653 133.050 264.177 C 133.310 264.464,134.322 265.584,135.299 266.664 C 136.276 267.745,137.324 268.757,137.628 268.914 C 140.036 270.160,142.392 267.519,140.873 265.278 C 140.356 264.515,136.617 260.200,136.473 260.200 C 136.432 260.200,135.539 260.977,134.488 261.927 M127.284 268.319 C 126.083 269.383,125.065 270.285,125.022 270.322 C 124.785 270.526,129.792 275.882,130.619 276.310 C 132.399 277.230,134.716 275.700,134.686 273.624 C 134.668 272.392,133.250 270.401,129.712 266.641 C 129.515 266.433,129.043 266.759,127.284 268.319 M253.232 281.300 C 256.416 286.690,259.105 291.249,259.207 291.430 C 259.364 291.710,255.690 294.200,255.120 294.200 C 255.069 294.200,251.894 292.548,248.064 290.529 C 244.234 288.510,240.705 286.657,240.223 286.411 L 239.345 285.964 239.755 286.632 C 241.020 288.691,246.999 298.897,246.996 298.990 C 246.989 299.196,243.325 301.214,243.112 301.128 C 242.995 301.081,240.340 296.691,237.211 291.372 C 234.082 286.052,231.407 281.517,231.266 281.293 C 231.005 280.878,234.647 278.388,235.258 278.563 C 235.501 278.632,248.975 285.749,250.370 286.544 L 251.241 287.041 250.676 286.070 C 250.365 285.537,248.598 282.542,246.750 279.415 C 244.702 275.951,243.461 273.659,243.573 273.547 C 243.996 273.124,246.922 271.430,247.172 271.464 C 247.321 271.484,250.048 275.910,253.232 281.300 M158.643 274.511 C 159.774 275.231,160.682 275.929,160.661 276.061 C 160.515 276.952,155.950 300.909,155.919 300.943 C 155.884 300.982,151.641 298.308,151.474 298.141 C 151.433 298.100,151.654 296.808,151.965 295.271 L 152.530 292.475 148.615 289.974 L 144.700 287.473 142.530 289.137 C 141.336 290.051,140.267 290.800,140.153 290.800 C 139.816 290.800,135.775 288.158,135.907 288.024 C 136.350 287.570,156.149 273.219,156.343 273.210 C 156.477 273.205,157.512 273.790,158.643 274.511 M151.903 281.994 C 150.035 283.418,148.483 284.654,148.454 284.741 C 148.400 284.908,152.698 287.722,153.179 287.835 C 153.390 287.884,153.687 286.861,154.395 283.650 C 154.910 281.313,155.324 279.401,155.316 279.403 C 155.307 279.404,153.771 280.570,151.903 281.994 M171.620 281.493 L 173.340 282.006 175.616 290.690 C 176.868 295.467,177.935 299.332,177.988 299.279 C 178.040 299.226,179.050 295.981,180.232 292.068 C 181.413 288.155,182.421 284.912,182.471 284.862 C 182.552 284.781,186.602 285.952,186.766 286.104 C 186.846 286.179,180.201 308.275,180.001 308.598 C 179.778 308.960,175.369 307.566,175.194 307.078 C 175.119 306.870,174.080 303.023,172.886 298.529 C 171.398 292.932,170.665 290.475,170.558 290.729 C 170.472 290.933,169.495 294.114,168.386 297.798 C 167.278 301.482,166.332 304.534,166.285 304.582 C 166.126 304.740,162.158 303.523,162.068 303.288 C 162.003 303.118,168.111 282.436,168.692 280.857 C 168.756 280.684,168.943 280.667,169.341 280.797 C 169.648 280.898,170.674 281.211,171.620 281.493 M230.439 287.900 C 233.832 300.811,233.886 302.125,231.132 304.878 C 229.079 306.932,223.687 308.569,220.759 308.028 C 216.970 307.327,215.465 305.395,213.706 298.973 C 211.377 290.465,210.455 286.697,210.675 286.576 C 211.227 286.270,215.064 285.386,215.192 285.535 C 215.271 285.626,216.172 288.895,217.194 292.800 C 219.409 301.266,219.576 301.751,220.597 302.673 C 222.899 304.753,227.756 303.189,228.135 300.244 C 228.252 299.340,227.898 297.761,225.725 289.500 C 224.799 285.980,224.068 283.071,224.101 283.036 C 224.221 282.909,228.309 281.847,228.581 281.873 C 228.777 281.892,229.344 283.732,230.439 287.900 M200.400 286.815 C 206.040 287.464,209.039 291.951,208.745 299.300 C 208.495 305.527,205.782 309.301,200.893 310.223 C 199.769 310.434,188.917 310.384,188.699 310.166 C 188.600 310.067,188.995 287.024,189.101 286.672 C 189.184 286.398,197.718 286.506,200.400 286.815 M193.926 293.623 C 193.861 295.205,193.774 298.690,193.732 301.366 L 193.658 306.233 196.979 306.166 C 202.450 306.057,203.580 304.771,203.634 298.600 C 203.687 292.526,202.390 291.030,196.910 290.844 L 194.044 290.746 193.926 293.623 " stroke="none" fill="#fbfbfb" fill-rule="evenodd"></path><path id="path3" d="M201.000 139.891 C 195.305 140.289,193.499 141.092,189.485 145.007 C 186.330 148.085,185.414 148.610,181.950 149.326 C 178.314 150.078,174.619 151.708,174.846 152.461 C 175.087 153.260,179.533 154.498,180.161 153.941 C 180.588 153.562,184.738 151.475,185.832 151.089 C 188.236 150.240,188.909 151.563,187.106 153.594 C 185.374 155.543,185.642 155.776,190.153 156.238 L 192.407 156.468 192.953 155.945 C 194.210 154.741,196.789 154.370,197.683 155.265 C 198.169 155.751,198.932 155.683,200.110 155.049 C 200.732 154.715,201.592 152.827,201.826 151.280 C 202.085 149.575,202.683 148.507,203.883 147.611 C 204.992 146.782,205.170 146.521,205.903 144.639 C 207.242 141.201,209.437 141.048,211.320 144.261 C 211.714 144.933,212.564 146.095,213.209 146.843 C 215.544 149.549,214.808 151.231,210.994 151.901 C 209.104 152.233,208.461 152.576,208.275 153.353 C 207.878 155.003,206.800 156.190,204.766 157.217 C 203.207 158.004,201.600 159.486,201.600 160.136 C 201.600 160.994,200.763 161.600,199.581 161.600 L 198.543 161.600 198.672 162.829 C 198.742 163.505,198.800 164.212,198.800 164.400 C 198.800 164.679,199.060 164.764,200.216 164.861 C 203.307 165.120,205.380 167.071,204.121 168.535 L 203.641 169.092 200.871 169.101 C 199.347 169.106,197.988 169.181,197.850 169.267 C 197.467 169.507,197.553 170.000,197.979 170.000 C 199.532 170.000,202.213 171.482,202.626 172.568 C 203.060 173.710,204.813 169.688,205.176 166.718 C 205.388 164.983,205.757 164.290,206.738 163.788 L 207.347 163.477 206.788 163.156 C 206.454 162.964,206.154 162.566,206.043 162.167 C 205.941 161.800,205.575 161.055,205.229 160.511 C 204.041 158.642,204.460 157.923,206.942 157.572 C 209.820 157.165,211.060 158.090,210.101 159.927 C 209.937 160.242,209.800 160.680,209.797 160.900 C 209.787 161.592,209.055 162.956,208.618 163.094 C 208.028 163.282,208.094 163.452,208.933 163.904 C 209.720 164.327,210.398 165.251,210.399 165.900 C 210.400 166.276,210.533 166.300,212.650 166.300 C 214.378 166.300,215.292 166.407,216.587 166.761 C 217.515 167.015,218.857 167.276,219.569 167.343 L 220.864 167.464 220.732 165.591 C 220.564 163.238,220.848 163.413,217.011 163.289 C 213.344 163.170,212.497 162.954,212.278 162.085 C 212.057 161.204,212.436 160.551,213.653 159.714 C 214.281 159.282,214.773 158.906,214.746 158.879 C 214.718 158.851,213.842 158.682,212.798 158.502 C 207.638 157.612,209.333 155.512,216.750 153.603 C 217.834 153.324,217.824 153.232,216.468 150.982 C 215.045 148.622,214.460 147.304,214.091 145.624 C 212.771 139.618,211.689 139.144,201.000 139.891 M208.133 143.764 C 207.950 143.966,207.566 144.710,207.281 145.416 C 206.531 147.275,206.101 147.892,204.986 148.710 C 203.763 149.608,203.662 149.793,203.315 151.780 C 202.818 154.626,201.436 156.563,199.647 156.921 C 198.830 157.084,198.836 157.227,199.687 157.876 C 200.561 158.543,200.491 158.557,201.604 157.516 C 202.124 157.029,203.123 156.345,203.825 155.995 C 205.559 155.130,206.351 154.332,206.714 153.083 C 207.187 151.455,208.154 150.790,210.600 150.413 C 213.294 149.997,213.489 149.608,211.926 147.766 C 211.335 147.070,210.503 145.924,210.076 145.220 C 209.103 143.615,208.605 143.242,208.133 143.764 M197.866 146.473 C 199.271 147.060,200.170 148.824,199.788 150.243 C 199.320 151.983,197.989 152.289,196.500 151.000 C 195.755 150.355,195.421 150.200,194.778 150.200 C 192.763 150.200,191.682 148.177,193.077 147.019 C 194.008 146.246,196.613 145.949,197.866 146.473 M194.916 147.867 C 193.826 148.196,193.746 148.600,194.770 148.600 C 195.815 148.600,196.395 148.832,197.272 149.602 C 198.036 150.273,198.400 150.251,198.400 149.533 C 198.400 148.134,196.710 147.326,194.916 147.867 M183.900 153.649 C 182.351 154.451,182.319 154.482,182.900 154.615 C 184.089 154.888,184.278 154.812,184.951 153.789 C 185.310 153.245,185.580 152.804,185.551 152.810 C 185.523 152.815,184.780 153.193,183.900 153.649 M216.500 155.301 C 213.732 156.130,212.089 156.752,212.400 156.852 C 212.933 157.024,219.298 158.153,219.370 158.089 C 219.518 157.957,218.411 154.794,218.223 154.811 C 218.155 154.816,217.380 155.037,216.500 155.301 M194.606 156.592 C 194.253 156.815,194.274 156.837,195.327 157.368 C 196.286 157.851,197.283 158.794,197.711 159.621 C 197.975 160.131,198.119 160.200,198.922 160.200 C 200.028 160.200,199.999 160.079,198.629 159.001 C 198.040 158.537,197.320 157.765,197.029 157.285 C 196.479 156.377,195.423 156.075,194.606 156.592 M206.662 159.140 C 206.227 159.224,206.228 159.231,206.812 160.151 C 207.135 160.661,207.400 161.241,207.400 161.439 C 207.400 162.163,207.984 161.802,208.191 160.950 C 208.305 160.483,208.480 159.853,208.581 159.550 C 208.774 158.975,208.171 158.846,206.662 159.140 M215.988 160.059 C 213.206 161.743,213.160 161.672,217.117 161.800 C 220.553 161.911,220.347 162.003,220.026 160.513 C 219.918 160.009,219.759 159.889,218.900 159.667 C 217.456 159.293,217.196 159.328,215.988 160.059 M207.125 165.372 C 206.909 165.611,206.719 166.356,206.595 167.444 C 206.368 169.440,206.138 170.151,205.022 172.301 C 204.325 173.644,204.145 174.248,203.893 176.073 C 203.364 179.916,202.415 182.389,200.504 184.900 C 199.399 186.353,199.407 186.678,200.548 186.761 C 203.339 186.964,205.200 184.539,205.414 180.421 C 205.566 177.488,205.950 176.054,207.270 173.500 C 207.835 172.405,207.892 172.124,207.910 170.300 C 207.926 168.709,208.019 168.101,208.365 167.325 C 208.923 166.074,208.913 165.720,208.307 165.323 C 207.679 164.911,207.537 164.917,207.125 165.372 M198.533 166.533 C 197.778 167.289,198.385 167.600,200.612 167.600 C 203.007 167.600,203.205 167.455,201.725 166.784 C 200.921 166.418,198.813 166.253,198.533 166.533 M211.390 167.831 C 210.237 168.139,209.591 168.782,209.461 169.751 C 209.322 170.788,209.797 170.913,210.767 170.097 C 212.337 168.776,214.663 168.603,216.784 169.649 C 217.887 170.192,218.327 170.298,219.500 170.299 L 220.900 170.300 220.962 169.550 L 221.024 168.800 219.820 168.800 C 219.158 168.800,217.408 168.530,215.932 168.200 C 213.110 167.569,212.543 167.523,211.390 167.831 M212.988 170.579 C 212.706 170.670,212.046 171.073,211.522 171.473 C 210.928 171.926,210.349 172.200,209.985 172.200 C 209.627 172.200,209.400 172.305,209.400 172.471 C 209.400 172.676,209.965 172.769,211.750 172.857 C 213.356 172.936,214.733 173.142,216.100 173.507 C 219.071 174.302,220.610 174.656,220.700 174.567 C 220.744 174.523,220.842 173.882,220.918 173.143 L 221.055 171.800 219.356 171.800 C 217.856 171.800,217.518 171.729,216.478 171.194 C 215.227 170.550,213.831 170.304,212.988 170.579 M195.644 172.308 C 195.008 172.934,194.863 173.181,195.079 173.264 C 195.660 173.487,200.697 173.626,200.987 173.428 C 201.610 173.000,200.123 172.024,198.240 171.625 C 196.767 171.312,196.612 171.353,195.644 172.308 M201.608 174.744 C 201.015 175.047,200.364 175.200,199.671 175.200 C 198.775 175.200,198.607 175.262,198.489 175.635 C 198.413 175.874,197.956 176.492,197.473 177.008 C 196.763 177.767,196.647 177.990,196.865 178.171 C 197.789 178.938,201.632 179.526,201.859 178.935 C 202.006 178.553,202.640 174.361,202.557 174.318 C 202.526 174.301,202.098 174.492,201.608 174.744 M208.783 174.519 C 208.512 174.603,207.800 175.772,207.800 176.135 C 207.800 176.202,208.588 176.206,209.550 176.144 C 211.758 176.003,212.807 176.225,214.447 177.183 C 217.833 179.162,220.600 179.176,220.600 177.214 C 220.600 176.222,220.421 176.000,219.623 176.000 C 219.434 176.000,218.159 175.676,216.790 175.280 C 214.380 174.583,209.946 174.161,208.783 174.519 M192.368 175.737 C 191.319 177.045,191.370 177.192,192.877 177.197 C 194.246 177.201,195.272 176.848,196.202 176.052 C 197.387 175.038,197.411 175.055,194.300 174.692 L 193.300 174.576 192.368 175.737 M207.006 178.660 C 206.698 180.092,206.731 180.469,207.150 180.309 C 208.843 179.659,211.881 179.688,214.400 180.379 C 216.530 180.963,219.938 180.888,220.150 180.252 C 220.211 180.068,220.006 180.033,219.366 180.118 C 217.909 180.312,215.714 179.722,213.906 178.652 L 212.300 177.700 209.756 177.700 L 207.212 177.700 207.006 178.660 M189.792 179.338 C 188.976 180.616,187.746 183.212,187.888 183.355 C 188.092 183.559,190.038 183.005,191.610 182.295 C 193.370 181.501,193.971 181.458,197.200 181.900 C 200.364 182.333,200.468 182.322,200.856 181.508 L 201.186 180.816 200.543 180.717 C 200.189 180.662,199.450 180.561,198.900 180.492 C 197.696 180.341,196.283 179.750,195.600 179.111 C 195.146 178.686,194.925 178.644,193.200 178.654 C 192.155 178.661,191.099 178.600,190.853 178.520 C 190.474 178.397,190.315 178.519,189.792 179.338 M209.031 181.408 C 206.745 181.875,206.008 183.405,207.800 183.962 C 209.593 184.519,211.826 184.381,214.649 183.537 C 216.050 183.118,217.798 182.664,218.532 182.529 L 219.866 182.283 217.583 182.287 C 215.833 182.290,214.950 182.191,213.800 181.861 C 211.981 181.338,210.199 181.169,209.031 181.408 M192.250 183.682 C 190.650 184.457,189.600 184.786,188.116 184.975 C 186.642 185.163,186.677 185.600,188.167 185.600 C 188.980 185.600,190.087 185.374,191.600 184.900 C 194.683 183.933,196.019 183.932,197.281 184.896 L 198.194 185.592 198.484 185.032 C 198.643 184.723,198.915 184.354,199.087 184.211 C 199.634 183.757,199.447 183.677,197.250 183.426 C 196.067 183.291,194.785 183.135,194.400 183.079 C 193.869 183.003,193.350 183.148,192.250 183.682 M215.700 184.846 C 212.660 185.811,208.838 186.038,207.029 185.359 L 206.158 185.032 205.029 186.179 C 202.284 188.965,199.812 189.044,196.794 186.440 C 195.673 185.472,195.069 185.454,192.400 186.304 C 190.587 186.882,189.719 187.049,188.300 187.092 L 186.500 187.146 186.269 188.123 C 185.794 190.134,185.825 190.200,187.250 190.203 C 189.068 190.209,190.941 190.665,192.623 191.512 C 195.599 193.011,197.598 193.428,197.602 192.550 C 197.612 190.284,200.614 188.042,201.907 189.336 C 202.252 189.680,202.242 191.242,201.887 192.380 C 201.506 193.604,204.405 192.516,204.940 191.234 C 205.618 189.607,206.860 188.632,208.693 188.288 C 209.117 188.209,209.856 187.879,210.335 187.556 C 212.085 186.374,215.263 185.657,217.826 185.865 L 219.152 185.973 219.347 184.986 L 219.542 184.000 218.921 184.010 C 218.580 184.015,217.130 184.392,215.700 184.846 M213.850 187.709 C 210.316 188.661,207.310 191.951,208.768 193.271 C 209.247 193.705,209.847 193.735,213.749 193.524 L 216.998 193.349 217.580 191.524 C 217.900 190.521,218.266 189.312,218.392 188.837 C 218.519 188.363,218.672 187.846,218.732 187.687 C 218.883 187.296,215.326 187.312,213.850 187.709 M200.146 190.800 C 199.677 191.168,199.287 192.069,198.889 193.700 C 198.809 194.030,198.721 196.010,198.695 198.100 C 198.664 200.654,198.542 202.414,198.324 203.468 C 197.540 207.260,198.008 209.015,200.402 211.275 C 202.591 213.339,202.721 213.318,201.670 211.068 C 200.328 208.197,199.987 206.630,200.022 203.503 C 200.041 201.734,199.946 200.431,199.725 199.437 C 199.200 197.074,199.293 195.400,200.095 192.788 C 200.870 190.265,200.870 190.230,200.146 190.800 M207.052 190.645 C 206.940 190.785,206.613 191.367,206.327 191.938 C 205.519 193.547,204.665 194.085,202.784 194.170 L 201.237 194.241 201.019 195.109 C 200.453 197.355,200.683 197.723,202.723 197.839 C 204.123 197.918,204.563 198.041,205.923 198.734 C 208.404 199.999,210.374 200.550,213.600 200.884 L 214.700 200.998 215.539 199.754 C 216.564 198.234,216.626 198.291,214.308 198.609 C 212.269 198.889,211.883 198.858,206.834 198.009 C 205.478 197.780,204.108 197.459,203.790 197.295 C 202.406 196.579,202.601 195.243,204.171 194.690 C 206.684 193.805,206.915 193.643,206.836 192.823 C 206.797 192.410,206.909 191.727,207.085 191.305 C 207.419 190.506,207.404 190.208,207.052 190.645 M185.561 192.900 C 185.471 195.453,185.373 195.206,186.631 195.595 C 187.253 195.787,188.963 196.574,190.431 197.344 C 193.441 198.922,194.655 199.373,196.100 199.448 L 197.100 199.500 197.156 197.086 L 197.212 194.673 195.979 194.443 C 195.301 194.317,193.790 193.767,192.623 193.221 C 189.964 191.978,189.302 191.803,187.250 191.801 L 185.600 191.800 185.561 192.900 M206.314 195.486 L 204.928 196.153 205.814 196.288 C 206.301 196.363,207.510 196.576,208.500 196.761 C 210.401 197.117,213.873 197.207,215.424 196.942 C 216.341 196.785,216.349 196.776,216.475 195.859 C 216.635 194.690,216.949 194.778,213.489 195.024 C 210.761 195.217,209.604 195.194,208.200 194.918 C 207.882 194.856,207.196 195.063,206.314 195.486 M185.403 198.237 C 185.407 200.492,185.198 200.283,189.665 202.483 C 193.396 204.320,193.799 204.473,195.124 204.558 L 196.555 204.650 196.793 203.175 C 196.923 202.364,197.074 201.543,197.128 201.350 C 197.212 201.052,197.084 200.999,196.263 200.995 C 194.595 200.987,193.599 200.644,189.900 198.806 C 185.053 196.398,185.399 196.442,185.403 198.237 M201.573 199.326 C 201.309 199.402,201.277 199.556,201.406 200.126 C 201.605 201.011,201.343 200.900,203.867 201.167 C 206.329 201.427,207.376 201.817,208.600 202.927 C 209.395 203.649,209.588 203.720,211.512 204.007 L 213.572 204.313 213.698 203.642 C 213.767 203.273,213.866 202.860,213.919 202.723 C 213.987 202.545,213.483 202.404,212.157 202.228 C 209.460 201.871,208.158 201.497,205.800 200.401 C 203.834 199.487,202.335 199.106,201.573 199.326 M216.435 201.145 C 214.324 204.435,214.762 207.260,218.621 215.233 C 220.414 218.940,220.633 219.511,220.739 220.783 C 220.877 222.425,221.206 222.629,221.950 221.536 C 222.542 220.666,222.533 220.581,221.600 218.348 C 220.730 216.266,220.588 215.000,221.036 213.323 C 221.268 212.456,221.251 212.397,220.119 210.095 C 218.740 207.291,218.435 205.842,218.783 203.734 L 219.011 202.354 218.069 201.327 C 217.551 200.762,217.110 200.274,217.089 200.242 C 217.069 200.211,216.774 200.617,216.435 201.145 M185.800 202.637 C 185.801 203.318,186.867 207.189,187.419 208.516 L 188.037 210.000 188.833 210.000 C 189.271 210.000,190.590 209.780,191.764 209.511 C 192.939 209.243,194.517 208.917,195.270 208.787 L 196.640 208.552 196.520 207.951 C 196.454 207.620,196.400 207.066,196.400 206.719 L 196.400 206.087 195.032 206.046 C 193.318 205.995,192.590 205.736,189.325 204.022 C 186.363 202.467,185.800 202.245,185.800 202.637 M201.515 203.827 C 201.316 205.689,201.426 205.864,202.733 205.756 C 203.547 205.688,204.012 205.511,204.653 205.024 C 205.119 204.671,205.840 204.219,206.256 204.020 C 207.478 203.436,206.244 202.853,203.376 202.660 L 201.653 202.544 201.515 203.827 M220.200 205.075 C 220.200 206.584,220.415 207.246,221.822 210.068 L 222.881 212.195 222.506 213.703 C 222.099 215.337,222.191 215.946,223.168 218.100 L 223.531 218.900 223.970 217.732 C 225.567 213.474,224.535 208.420,221.299 204.650 C 220.329 203.521,220.200 203.571,220.200 205.075 M206.870 205.386 C 205.533 205.966,207.150 207.880,209.492 208.490 C 211.241 208.945,214.262 208.919,214.124 208.450 C 214.068 208.257,213.964 207.740,213.893 207.300 C 213.656 205.820,213.701 205.860,212.044 205.625 C 209.667 205.287,207.346 205.180,206.870 205.386 M203.800 207.110 C 203.305 207.252,202.688 207.375,202.428 207.384 C 201.860 207.403,201.909 207.716,202.819 209.884 L 203.413 211.300 205.857 211.339 C 207.200 211.361,209.758 211.403,211.540 211.432 C 215.076 211.491,215.080 211.490,214.886 210.714 C 214.753 210.186,214.739 210.182,213.426 210.309 C 209.793 210.661,206.671 209.553,205.370 207.450 C 205.148 207.093,204.907 206.812,204.834 206.826 C 204.760 206.840,204.295 206.968,203.800 207.110 M195.100 210.402 C 190.815 211.181,190.859 211.165,190.424 212.045 C 190.075 212.751,190.068 212.827,190.366 212.733 C 192.292 212.123,194.252 211.809,197.744 211.548 L 198.389 211.500 197.744 210.769 L 197.100 210.038 195.100 210.402 M204.550 212.738 C 204.304 212.802,204.200 213.029,204.200 213.500 C 204.200 214.965,202.933 215.220,201.342 214.077 C 199.775 212.951,197.526 213.545,195.387 215.650 C 192.895 218.104,193.478 218.526,197.388 217.102 C 198.977 216.523,201.513 216.433,202.019 216.939 C 202.583 217.503,202.058 218.125,200.711 218.490 C 197.838 219.267,196.718 220.488,197.927 221.523 C 198.960 222.408,199.455 222.386,202.762 221.308 C 205.609 220.380,208.320 219.814,210.076 219.781 L 211.100 219.762 210.113 219.434 C 209.410 219.201,208.657 218.672,207.489 217.590 C 206.543 216.714,205.566 215.991,205.176 215.880 C 204.647 215.729,204.486 215.568,204.436 215.139 C 204.302 213.981,207.229 213.522,211.192 214.078 C 213.499 214.402,216.030 214.503,216.254 214.280 C 216.480 214.053,215.733 212.800,215.371 212.800 C 215.175 212.800,214.124 212.897,213.035 213.015 C 211.426 213.191,210.629 213.172,208.785 212.915 C 206.572 212.608,205.259 212.553,204.550 212.738 M193.800 213.427 C 192.581 213.626,190.800 214.170,190.800 214.344 C 190.800 214.497,192.476 216.581,192.600 216.581 C 192.655 216.581,193.012 216.143,193.394 215.607 C 193.776 215.071,194.486 214.311,194.972 213.916 C 195.963 213.113,195.895 213.084,193.800 213.427 M208.709 216.583 C 210.359 218.188,212.383 218.556,216.643 218.023 C 218.109 217.840,218.162 217.769,217.638 216.691 L 217.201 215.791 215.650 215.911 C 214.663 215.988,213.307 215.917,211.915 215.716 C 210.714 215.542,209.229 215.402,208.615 215.404 L 207.500 215.408 208.709 216.583 M195.709 219.386 C 195.572 219.607,195.887 219.846,196.072 219.661 C 196.262 219.471,196.227 219.200,196.012 219.200 C 195.908 219.200,195.772 219.284,195.709 219.386 M217.200 219.501 L 215.900 219.751 217.000 219.778 C 217.605 219.793,218.312 219.862,218.570 219.931 C 218.950 220.033,219.027 219.988,218.970 219.695 C 218.878 219.221,218.739 219.206,217.200 219.501 M209.600 221.325 C 207.547 221.560,206.056 221.894,203.800 222.623 C 202.425 223.068,201.171 223.473,201.014 223.523 C 200.826 223.584,200.995 223.791,201.514 224.136 C 201.946 224.422,202.496 224.833,202.735 225.049 C 203.255 225.518,203.457 225.467,207.046 223.966 C 210.661 222.455,211.961 222.173,215.850 222.052 C 219.055 221.953,219.736 221.823,218.750 221.498 C 218.260 221.337,210.737 221.194,209.600 221.325 M213.900 223.594 C 211.833 223.834,210.312 224.282,207.408 225.504 C 205.977 226.107,204.714 226.600,204.603 226.600 C 204.287 226.600,204.358 226.846,204.907 227.654 C 205.229 228.127,205.572 228.400,205.844 228.400 C 206.977 228.400,209.170 227.633,211.900 226.282 C 215.295 224.603,216.537 224.218,219.092 224.054 C 220.232 223.981,220.736 223.885,220.478 223.790 C 219.824 223.548,215.425 223.417,213.900 223.594 M217.900 225.692 C 215.909 226.069,214.780 226.492,212.475 227.723 C 210.204 228.936,208.633 229.529,207.182 229.721 C 206.642 229.793,206.200 229.882,206.200 229.920 C 206.200 230.025,207.203 232.270,207.287 232.354 C 207.328 232.395,207.932 232.007,208.631 231.492 C 211.659 229.260,213.648 228.598,217.758 228.453 L 220.816 228.346 220.758 226.923 L 220.700 225.500 220.000 225.463 C 219.615 225.443,218.670 225.546,217.900 225.692 M216.032 230.008 C 213.597 230.338,211.672 231.161,209.469 232.815 C 207.669 234.166,207.755 234.056,207.997 234.692 L 208.209 235.250 209.271 234.245 C 211.573 232.068,213.455 231.658,218.173 232.304 C 221.434 232.751,221.494 232.731,221.321 231.256 C 221.247 230.632,221.168 230.104,221.144 230.084 C 220.958 229.929,217.042 229.871,216.032 230.008 M212.603 233.842 C 211.358 234.320,208.512 236.911,208.681 237.414 C 208.733 237.571,208.878 238.216,209.002 238.846 L 209.227 239.992 211.041 238.772 C 214.221 236.634,216.721 235.977,220.650 236.247 L 221.800 236.326 221.800 235.479 C 221.800 234.074,221.722 234.000,220.229 234.000 C 219.498 234.000,218.135 233.865,217.200 233.700 C 214.949 233.303,213.923 233.335,212.603 233.842 M215.829 238.015 C 213.985 238.378,209.524 241.392,209.690 242.164 C 211.313 249.706,212.510 259.459,212.365 263.960 C 212.144 270.790,207.725 273.398,199.435 271.591 C 193.482 270.294,185.564 265.560,184.039 262.387 C 182.967 260.157,184.350 257.600,186.630 257.600 C 187.740 257.600,187.611 257.258,186.005 255.946 C 184.474 254.695,184.218 254.173,184.541 252.962 C 184.769 252.109,184.791 252.120,183.437 252.411 C 181.590 252.807,181.045 256.782,182.211 261.345 C 182.906 264.061,182.646 264.245,179.838 263.027 C 178.827 262.589,178.000 262.276,178.000 262.333 C 178.000 263.141,184.461 267.170,186.741 267.784 C 188.299 268.204,188.157 268.912,186.342 269.784 C 184.428 270.704,183.403 271.618,184.024 271.849 C 185.118 272.257,187.113 272.605,190.585 272.995 C 195.697 273.569,195.947 273.882,192.868 275.859 L 190.936 277.100 191.718 277.166 C 192.954 277.269,195.952 276.852,198.116 276.275 C 201.746 275.308,202.038 275.491,200.942 278.043 C 199.710 280.910,199.723 280.859,200.293 280.486 C 200.848 280.123,201.742 279.050,202.993 277.247 C 204.011 275.780,204.909 275.147,205.845 275.237 L 206.500 275.300 206.484 278.156 C 206.475 279.727,206.526 280.942,206.598 280.856 C 206.670 280.770,206.983 280.070,207.295 279.300 C 210.092 272.390,211.363 271.701,212.221 276.628 C 212.797 279.934,212.845 280.005,213.026 277.800 C 213.683 269.779,214.715 268.326,217.157 271.984 L 217.963 273.190 218.041 270.345 C 218.127 267.220,218.351 266.400,219.116 266.400 C 219.868 266.400,220.120 266.579,221.112 267.815 C 221.636 268.468,222.101 268.966,222.145 268.922 C 222.299 268.767,220.741 265.888,219.460 263.958 C 217.455 260.940,218.068 260.223,221.401 261.688 C 222.291 262.080,223.081 262.400,223.156 262.400 C 223.230 262.400,222.511 261.613,221.556 260.650 C 217.286 256.345,217.182 252.968,221.388 255.200 C 223.341 256.237,223.357 256.261,220.369 253.600 C 216.668 250.303,216.674 249.748,220.407 249.632 C 224.414 249.509,222.490 249.200,217.713 249.200 C 212.466 249.200,211.870 249.135,211.680 248.538 C 211.452 247.818,212.423 247.325,217.521 245.574 C 221.858 244.085,222.396 243.852,222.398 243.469 C 222.401 242.742,219.898 243.223,216.940 244.517 C 214.527 245.574,213.971 245.288,214.415 243.218 C 214.822 241.319,216.246 240.074,219.372 238.887 C 220.432 238.483,221.480 238.080,221.700 237.990 C 222.236 237.772,216.955 237.794,215.829 238.015 M221.400 239.739 C 218.455 240.799,216.854 241.715,216.294 242.664 C 216.028 243.114,216.009 243.237,216.219 243.149 C 218.517 242.190,219.254 241.955,220.655 241.738 C 221.690 241.577,222.293 241.393,222.280 241.241 C 222.269 241.109,222.247 240.685,222.230 240.300 C 222.200 239.610,222.047 239.507,221.400 239.739 M219.302 246.582 C 216.060 247.683,216.155 247.794,220.350 247.798 L 222.600 247.800 222.600 246.700 C 222.600 245.373,222.835 245.382,219.302 246.582 M220.525 251.175 C 220.205 251.301,220.342 251.491,221.480 252.490 C 223.029 253.850,223.041 253.848,222.872 252.233 L 222.743 251.000 221.822 251.014 C 221.315 251.022,220.731 251.094,220.525 251.175 M186.305 252.790 C 185.830 253.708,185.917 253.913,187.202 254.901 C 188.500 255.901,189.000 256.643,189.000 257.572 C 189.000 258.420,191.024 260.508,191.565 260.219 C 192.363 259.792,192.442 259.506,192.094 258.308 C 191.744 257.104,191.869 256.297,192.518 255.580 C 193.091 254.947,190.402 253.138,187.901 252.471 C 186.592 252.123,186.657 252.110,186.305 252.790 M179.574 254.650 C 178.530 255.774,178.006 257.062,177.707 259.242 L 177.578 260.184 179.009 260.905 C 180.716 261.764,180.679 261.785,180.393 260.143 C 180.268 259.425,180.196 257.750,180.233 256.419 C 180.270 255.088,180.272 254.000,180.239 254.000 C 180.205 254.000,179.906 254.293,179.574 254.650 M220.400 256.503 C 220.400 257.040,222.572 259.800,222.994 259.800 C 223.555 259.800,222.876 257.935,222.130 257.425 C 221.099 256.722,220.400 256.349,220.400 256.503 M193.463 256.925 C 193.394 257.104,193.454 257.572,193.596 257.965 C 194.195 259.620,193.778 260.782,192.311 261.544 L 191.723 261.850 192.554 262.625 C 194.245 264.203,195.101 263.611,195.097 260.866 C 195.094 258.343,193.964 255.619,193.463 256.925 M221.000 263.323 C 221.000 263.727,222.698 266.167,222.832 265.956 C 223.385 265.084,223.025 264.090,222.000 263.657 C 221.450 263.425,221.000 263.274,221.000 263.323 M179.682 266.506 C 180.274 267.537,182.344 270.400,182.497 270.400 C 182.544 270.400,183.081 270.028,183.689 269.573 L 184.795 268.746 183.848 268.249 C 182.993 267.801,181.798 267.114,179.805 265.926 L 179.110 265.512 179.682 266.506 M219.545 268.722 C 219.363 268.904,219.376 272.234,219.563 273.289 L 219.703 274.078 220.023 273.589 C 220.558 272.771,221.400 271.029,221.392 270.757 C 221.381 270.384,219.716 268.550,219.545 268.722 M215.022 273.235 C 214.809 274.307,214.416 278.638,214.521 278.772 C 214.589 278.860,215.604 278.160,216.755 277.233 C 217.734 276.444,217.734 276.448,216.695 274.288 C 215.653 272.121,215.290 271.893,215.022 273.235 M186.400 274.084 C 186.400 274.257,189.045 276.200,189.280 276.199 C 189.401 276.199,190.040 275.839,190.700 275.400 C 191.360 274.961,191.765 274.600,191.600 274.599 C 191.159 274.596,187.806 274.223,187.050 274.093 C 186.692 274.032,186.400 274.028,186.400 274.084 M209.743 277.549 C 208.425 280.381,208.137 281.245,208.547 281.130 C 208.741 281.076,209.418 280.887,210.050 280.710 C 211.110 280.414,211.200 280.344,211.200 279.812 C 211.200 279.218,210.664 276.198,210.536 276.069 C 210.497 276.030,210.140 276.696,209.743 277.549 M204.400 277.946 C 204.125 278.355,203.472 279.251,202.950 279.938 C 201.762 281.499,201.725 281.400,203.500 281.400 L 205.000 281.400 205.000 279.300 C 205.000 278.145,204.978 277.201,204.950 277.201 C 204.923 277.202,204.675 277.537,204.400 277.946 M198.500 277.823 C 198.170 277.926,196.865 278.171,195.600 278.365 L 193.300 278.720 194.883 279.379 C 197.638 280.528,198.191 280.646,198.392 280.134 C 198.485 279.895,198.750 279.265,198.981 278.733 C 199.544 277.435,199.572 277.486,198.500 277.823 " stroke="none" fill="#c9261e" fill-rule="evenodd"></path><path id="path4" d="M197.350 100.745 C 197.708 100.789,198.293 100.789,198.650 100.745 C 199.008 100.700,198.715 100.664,198.000 100.664 C 197.285 100.664,196.993 100.700,197.350 100.745 M201.546 100.744 C 201.901 100.789,202.531 100.789,202.946 100.746 C 203.360 100.703,203.070 100.667,202.300 100.666 C 201.530 100.665,201.190 100.700,201.546 100.744 M199.750 104.741 C 199.998 104.789,200.403 104.789,200.650 104.741 C 200.898 104.693,200.695 104.654,200.200 104.654 C 199.705 104.654,199.503 104.693,199.750 104.741 M197.454 117.800 C 197.454 118.295,197.493 118.498,197.541 118.250 C 197.589 118.003,197.589 117.597,197.541 117.350 C 197.493 117.103,197.454 117.305,197.454 117.800 M84.697 126.650 L 81.900 129.500 84.750 126.703 C 87.398 124.104,87.691 123.800,87.547 123.800 C 87.518 123.800,86.236 125.083,84.697 126.650 M305.200 124.263 C 305.200 124.297,305.493 124.590,305.850 124.913 L 306.500 125.500 305.913 124.850 C 305.365 124.244,305.200 124.108,305.200 124.263 M245.857 125.900 C 245.859 126.450,245.898 126.651,245.944 126.347 C 245.989 126.043,245.988 125.593,245.941 125.347 C 245.893 125.101,245.856 125.350,245.857 125.900 M241.450 129.700 C 241.453 130.140,241.494 130.296,241.541 130.048 C 241.589 129.799,241.587 129.439,241.537 129.248 C 241.487 129.056,241.448 129.260,241.450 129.700 M246.057 132.900 C 246.059 133.450,246.098 133.651,246.144 133.347 C 246.189 133.043,246.188 132.593,246.141 132.347 C 246.093 132.101,246.056 132.350,246.057 132.900 M313.600 132.663 C 313.600 132.697,313.893 132.990,314.250 133.313 L 314.900 133.900 314.313 133.250 C 313.765 132.644,313.600 132.508,313.600 132.663 M125.793 135.550 L 124.700 136.700 125.850 135.607 C 126.918 134.591,127.092 134.400,126.943 134.400 C 126.912 134.400,126.394 134.917,125.793 135.550 M241.650 135.900 C 241.653 136.340,241.694 136.496,241.741 136.248 C 241.789 135.999,241.787 135.639,241.737 135.448 C 241.687 135.256,241.648 135.460,241.650 135.900 M201.050 137.938 C 201.243 137.988,201.558 137.988,201.750 137.938 C 201.942 137.888,201.785 137.846,201.400 137.846 C 201.015 137.846,200.858 137.888,201.050 137.938 M241.850 142.100 C 241.853 142.540,241.894 142.696,241.941 142.448 C 241.989 142.199,241.987 141.839,241.937 141.648 C 241.887 141.456,241.848 141.660,241.850 142.100 M188.887 142.650 L 188.300 143.300 188.950 142.713 C 189.308 142.390,189.600 142.097,189.600 142.063 C 189.600 141.908,189.435 142.044,188.887 142.650 M159.053 143.744 C 159.357 143.789,159.807 143.788,160.053 143.741 C 160.299 143.693,160.050 143.656,159.500 143.657 C 158.950 143.659,158.749 143.698,159.053 143.744 M344.676 162.800 C 344.676 164.065,344.708 164.583,344.748 163.950 C 344.787 163.317,344.787 162.283,344.748 161.650 C 344.708 161.018,344.676 161.535,344.676 162.800 M61.862 163.900 C 61.863 164.560,61.900 164.806,61.945 164.446 C 61.989 164.087,61.989 163.547,61.943 163.246 C 61.897 162.946,61.861 163.240,61.862 163.900 M55.660 167.400 C 55.660 168.005,55.697 168.253,55.743 167.950 C 55.789 167.648,55.789 167.153,55.743 166.850 C 55.697 166.548,55.660 166.795,55.660 167.400 M334.262 168.300 C 334.263 168.960,334.300 169.206,334.345 168.846 C 334.389 168.487,334.389 167.947,334.343 167.646 C 334.297 167.346,334.261 167.640,334.262 168.300 M222.850 168.300 C 222.853 168.740,222.894 168.896,222.941 168.648 C 222.989 168.399,222.987 168.039,222.937 167.848 C 222.887 167.656,222.848 167.860,222.850 168.300 M338.257 170.500 C 338.259 171.050,338.298 171.251,338.344 170.947 C 338.389 170.643,338.388 170.193,338.341 169.947 C 338.293 169.701,338.256 169.950,338.257 170.500 M66.050 171.300 C 66.053 171.740,66.094 171.896,66.141 171.648 C 66.189 171.399,66.187 171.039,66.137 170.848 C 66.087 170.656,66.048 170.860,66.050 171.300 M344.450 171.300 C 344.453 171.740,344.494 171.896,344.541 171.648 C 344.589 171.399,344.587 171.039,344.537 170.848 C 344.487 170.656,344.448 170.860,344.450 171.300 M222.850 172.700 C 222.853 173.140,222.894 173.296,222.941 173.048 C 222.989 172.799,222.987 172.439,222.937 172.248 C 222.887 172.056,222.848 172.260,222.850 172.700 M62.050 172.900 C 62.053 173.340,62.094 173.496,62.141 173.248 C 62.189 172.999,62.187 172.639,62.137 172.448 C 62.087 172.256,62.048 172.460,62.050 172.900 M55.846 173.200 C 55.846 173.585,55.888 173.743,55.938 173.550 C 55.988 173.358,55.988 173.043,55.938 172.850 C 55.888 172.658,55.846 172.815,55.846 173.200 M221.000 201.463 C 221.000 201.497,221.293 201.790,221.650 202.113 L 222.300 202.700 221.713 202.050 C 221.165 201.444,221.000 201.308,221.000 201.463 M95.250 205.700 C 95.253 206.140,95.294 206.296,95.341 206.048 C 95.389 205.799,95.387 205.439,95.337 205.248 C 95.287 205.056,95.248 205.260,95.250 205.700 M309.057 206.500 C 309.059 207.050,309.098 207.251,309.144 206.947 C 309.189 206.643,309.188 206.193,309.141 205.947 C 309.093 205.701,309.056 205.950,309.057 206.500 M305.076 209.600 C 305.076 210.865,305.108 211.382,305.148 210.750 C 305.187 210.118,305.187 209.082,305.148 208.450 C 305.108 207.818,305.076 208.335,305.076 209.600 M309.054 212.800 C 309.054 213.295,309.093 213.498,309.141 213.250 C 309.189 213.003,309.189 212.597,309.141 212.350 C 309.093 212.103,309.054 212.305,309.054 212.800 M95.246 213.600 C 95.246 213.985,95.288 214.143,95.338 213.950 C 95.388 213.757,95.388 213.443,95.338 213.250 C 95.288 213.058,95.246 213.215,95.246 213.600 M222.650 225.900 C 222.653 226.340,222.694 226.496,222.741 226.248 C 222.789 225.999,222.787 225.639,222.737 225.448 C 222.687 225.256,222.648 225.460,222.650 225.900 M224.854 253.200 C 224.854 253.695,224.893 253.898,224.941 253.650 C 224.989 253.403,224.989 252.998,224.941 252.750 C 224.893 252.503,224.854 252.705,224.854 253.200 M225.062 260.700 C 225.063 261.360,225.100 261.606,225.145 261.246 C 225.189 260.887,225.189 260.347,225.143 260.046 C 225.097 259.746,225.061 260.040,225.062 260.700 M146.050 267.300 C 146.053 267.740,146.094 267.896,146.141 267.648 C 146.189 267.399,146.187 267.039,146.137 266.848 C 146.087 266.656,146.048 266.860,146.050 267.300 M135.800 267.463 C 135.800 267.497,136.093 267.790,136.450 268.113 L 137.100 268.700 136.513 268.050 C 135.965 267.444,135.800 267.308,135.800 267.463 M140.152 273.141 C 140.401 273.189,140.761 273.187,140.952 273.137 C 141.144 273.087,140.940 273.048,140.500 273.050 C 140.060 273.053,139.904 273.094,140.152 273.141 M127.100 279.000 C 127.642 279.550,128.130 280.000,128.185 280.000 C 128.240 280.000,127.842 279.550,127.300 279.000 C 126.758 278.450,126.270 278.000,126.215 278.000 C 126.160 278.000,126.558 278.450,127.100 279.000 M275.589 282.550 L 274.900 283.300 275.650 282.611 C 276.063 282.232,276.400 281.894,276.400 281.861 C 276.400 281.708,276.231 281.852,275.589 282.550 M272.989 285.150 L 272.300 285.900 273.050 285.211 C 273.463 284.832,273.800 284.494,273.800 284.461 C 273.800 284.308,273.631 284.452,272.989 285.150 M197.250 286.743 C 197.553 286.789,198.048 286.789,198.350 286.743 C 198.653 286.697,198.405 286.660,197.800 286.660 C 197.195 286.660,196.947 286.697,197.250 286.743 M189.066 288.700 C 189.067 289.470,189.103 289.760,189.146 289.346 C 189.189 288.931,189.189 288.301,189.144 287.946 C 189.100 287.590,189.065 287.930,189.066 288.700 M195.154 290.745 C 195.513 290.789,196.053 290.789,196.354 290.743 C 196.654 290.697,196.360 290.661,195.700 290.662 C 195.040 290.663,194.794 290.700,195.154 290.745 M188.867 299.400 C 188.867 300.225,188.903 300.563,188.946 300.150 C 188.989 299.738,188.989 299.063,188.946 298.650 C 188.903 298.238,188.867 298.575,188.867 299.400 M193.666 300.100 C 193.667 300.870,193.703 301.160,193.746 300.746 C 193.789 300.331,193.789 299.701,193.744 299.346 C 193.700 298.990,193.665 299.330,193.666 300.100 M222.750 303.741 C 222.998 303.789,223.403 303.789,223.650 303.741 C 223.898 303.693,223.695 303.654,223.200 303.654 C 222.705 303.654,222.503 303.693,222.750 303.741 M196.157 306.348 C 196.738 306.388,197.638 306.388,198.157 306.347 C 198.676 306.306,198.200 306.273,197.100 306.273 C 196.000 306.274,195.576 306.307,196.157 306.348 M188.654 309.400 C 188.654 309.895,188.693 310.098,188.741 309.850 C 188.789 309.603,188.789 309.197,188.741 308.950 C 188.693 308.703,188.654 308.905,188.654 309.400 M194.546 310.344 C 194.901 310.389,195.531 310.389,195.946 310.346 C 196.360 310.303,196.070 310.267,195.300 310.266 C 194.530 310.265,194.190 310.300,194.546 310.344 M195.352 314.541 C 195.601 314.589,195.961 314.587,196.152 314.537 C 196.344 314.487,196.140 314.448,195.700 314.450 C 195.260 314.453,195.104 314.494,195.352 314.541 M204.250 314.538 C 204.442 314.588,204.758 314.588,204.950 314.538 C 205.143 314.488,204.985 314.446,204.600 314.446 C 204.215 314.446,204.058 314.488,204.250 314.538 M195.050 334.346 C 195.463 334.389,196.138 334.389,196.550 334.346 C 196.963 334.303,196.625 334.267,195.800 334.267 C 194.975 334.267,194.638 334.303,195.050 334.346 M203.755 334.347 C 204.226 334.389,204.946 334.388,205.355 334.345 C 205.765 334.302,205.380 334.268,204.500 334.269 C 203.620 334.269,203.285 334.304,203.755 334.347 M187.250 338.138 C 187.442 338.188,187.758 338.188,187.950 338.138 C 188.143 338.088,187.985 338.046,187.600 338.046 C 187.215 338.046,187.058 338.088,187.250 338.138 M192.650 338.343 C 192.953 338.389,193.447 338.389,193.750 338.343 C 194.053 338.297,193.805 338.260,193.200 338.260 C 192.595 338.260,192.347 338.297,192.650 338.343 M206.653 338.344 C 206.957 338.389,207.407 338.388,207.653 338.341 C 207.899 338.293,207.650 338.256,207.100 338.257 C 206.550 338.259,206.349 338.298,206.653 338.344 M188.952 344.541 C 189.201 344.589,189.561 344.587,189.752 344.537 C 189.944 344.487,189.740 344.448,189.300 344.450 C 188.860 344.453,188.704 344.494,188.952 344.541 M210.552 344.541 C 210.801 344.589,211.161 344.587,211.352 344.537 C 211.544 344.487,211.340 344.448,210.900 344.450 C 210.460 344.453,210.304 344.494,210.552 344.541 M198.250 344.749 C 199.322 344.785,201.078 344.785,202.150 344.749 C 203.222 344.713,202.345 344.684,200.200 344.684 C 198.055 344.684,197.178 344.713,198.250 344.749 " stroke="none" fill="#848484" fill-rule="evenodd"></path><path id="path5" d="M310.600 121.863 C 310.600 121.897,310.893 122.190,311.250 122.513 L 311.900 123.100 311.313 122.450 C 310.765 121.844,310.600 121.708,310.600 121.863 M90.197 128.950 L 87.300 131.900 90.250 129.003 C 91.873 127.409,93.200 126.082,93.200 126.053 C 93.200 125.909,92.889 126.210,90.197 128.950 M319.000 130.263 C 319.000 130.297,319.293 130.590,319.650 130.913 L 320.300 131.500 319.713 130.850 C 319.165 130.244,319.000 130.108,319.000 130.263 M274.287 283.850 L 273.700 284.500 274.350 283.913 C 274.956 283.365,275.092 283.200,274.937 283.200 C 274.903 283.200,274.610 283.493,274.287 283.850 " stroke="none" fill="#959595" fill-rule="evenodd"></path><path id="path6" d="M188.752 114.541 C 189.001 114.589,189.361 114.587,189.552 114.537 C 189.744 114.487,189.540 114.448,189.100 114.450 C 188.660 114.453,188.504 114.494,188.752 114.541 M89.687 121.850 L 89.100 122.500 89.750 121.913 C 90.356 121.365,90.492 121.200,90.337 121.200 C 90.303 121.200,90.010 121.493,89.687 121.850 M312.700 124.000 C 313.242 124.550,313.730 125.000,313.785 125.000 C 313.840 125.000,313.442 124.550,312.900 124.000 C 312.358 123.450,311.870 123.000,311.815 123.000 C 311.760 123.000,312.158 123.450,312.700 124.000 M245.854 124.000 C 245.854 124.495,245.893 124.697,245.941 124.450 C 245.989 124.203,245.989 123.797,245.941 123.550 C 245.893 123.303,245.854 123.505,245.854 124.000 M93.687 125.450 L 93.100 126.100 93.750 125.513 C 94.356 124.965,94.492 124.800,94.337 124.800 C 94.303 124.800,94.010 125.093,93.687 125.450 M310.000 128.900 C 311.041 129.945,311.937 130.800,311.992 130.800 C 312.047 130.800,311.241 129.945,310.200 128.900 C 309.159 127.855,308.263 127.000,308.208 127.000 C 308.153 127.000,308.959 127.855,310.000 128.900 M317.900 129.200 C 318.442 129.750,318.930 130.200,318.985 130.200 C 319.040 130.200,318.642 129.750,318.100 129.200 C 317.558 128.650,317.070 128.200,317.015 128.200 C 316.960 128.200,317.358 128.650,317.900 129.200 M246.054 131.000 C 246.054 131.495,246.093 131.697,246.141 131.450 C 246.189 131.203,246.189 130.797,246.141 130.550 C 246.093 130.303,246.054 130.505,246.054 131.000 M241.450 131.300 C 241.453 131.740,241.494 131.896,241.541 131.648 C 241.589 131.399,241.587 131.039,241.537 130.848 C 241.487 130.656,241.448 130.860,241.450 131.300 M80.087 131.450 L 79.500 132.100 80.150 131.513 C 80.756 130.965,80.892 130.800,80.737 130.800 C 80.703 130.800,80.410 131.093,80.087 131.450 M86.589 132.550 L 85.900 133.300 86.650 132.611 C 87.348 131.969,87.492 131.800,87.339 131.800 C 87.306 131.800,86.968 132.138,86.589 132.550 M274.200 135.500 C 275.130 136.435,275.936 137.200,275.991 137.200 C 276.046 137.200,275.330 136.435,274.400 135.500 C 273.470 134.565,272.664 133.800,272.609 133.800 C 272.554 133.800,273.270 134.565,274.200 135.500 M241.650 137.500 C 241.653 137.940,241.694 138.096,241.741 137.848 C 241.789 137.599,241.787 137.239,241.737 137.048 C 241.687 136.856,241.648 137.060,241.650 137.500 M246.250 137.900 C 246.253 138.340,246.294 138.496,246.341 138.248 C 246.389 137.999,246.387 137.639,246.337 137.448 C 246.287 137.256,246.248 137.460,246.250 137.900 M199.250 137.943 C 199.553 137.989,200.048 137.989,200.350 137.943 C 200.653 137.897,200.405 137.860,199.800 137.860 C 199.195 137.860,198.947 137.897,199.250 137.943 M241.850 143.700 C 241.853 144.140,241.894 144.296,241.941 144.048 C 241.989 143.799,241.987 143.439,241.937 143.248 C 241.887 143.056,241.848 143.260,241.850 143.700 M186.989 144.550 L 186.300 145.300 187.050 144.611 C 187.463 144.232,187.800 143.894,187.800 143.861 C 187.800 143.708,187.631 143.852,186.989 144.550 M55.669 164.700 C 55.669 165.580,55.704 165.915,55.747 165.445 C 55.789 164.974,55.788 164.254,55.745 163.845 C 55.702 163.435,55.668 163.820,55.669 164.700 M196.650 164.100 C 196.653 164.540,196.694 164.696,196.741 164.448 C 196.789 164.199,196.787 163.839,196.737 163.648 C 196.687 163.456,196.648 163.660,196.650 164.100 M61.872 166.800 C 61.872 167.845,61.906 168.273,61.947 167.750 C 61.988 167.228,61.988 166.373,61.947 165.850 C 61.906 165.328,61.872 165.755,61.872 166.800 M344.450 169.900 C 344.453 170.340,344.494 170.496,344.541 170.248 C 344.589 169.999,344.587 169.639,344.537 169.448 C 344.487 169.256,344.448 169.460,344.450 169.900 M338.250 172.300 C 338.253 172.740,338.294 172.896,338.341 172.648 C 338.389 172.399,338.387 172.039,338.337 171.848 C 338.287 171.656,338.248 171.860,338.250 172.300 M95.281 209.700 C 95.281 211.460,95.312 212.153,95.349 211.241 C 95.386 210.328,95.386 208.888,95.348 208.041 C 95.311 207.193,95.281 207.940,95.281 209.700 M192.300 219.400 C 192.842 219.950,193.330 220.400,193.385 220.400 C 193.440 220.400,193.042 219.950,192.500 219.400 C 191.958 218.850,191.470 218.400,191.415 218.400 C 191.360 218.400,191.758 218.850,192.300 219.400 M224.850 251.700 C 224.853 252.140,224.894 252.296,224.941 252.048 C 224.989 251.799,224.987 251.439,224.937 251.248 C 224.887 251.056,224.848 251.260,224.850 251.700 M225.060 258.400 C 225.060 259.005,225.097 259.252,225.143 258.950 C 225.189 258.647,225.189 258.153,225.143 257.850 C 225.097 257.548,225.060 257.795,225.060 258.400 M197.246 261.200 C 197.246 261.585,197.288 261.743,197.338 261.550 C 197.388 261.358,197.388 261.043,197.338 260.850 C 197.288 260.657,197.246 260.815,197.246 261.200 M203.550 270.141 C 203.798 270.189,204.203 270.189,204.450 270.141 C 204.697 270.093,204.495 270.054,204.000 270.054 C 203.505 270.054,203.303 270.093,203.550 270.141 M129.200 275.300 C 129.573 275.685,129.923 276.000,129.978 276.000 C 130.033 276.000,129.773 275.685,129.400 275.300 C 129.027 274.915,128.677 274.600,128.622 274.600 C 128.567 274.600,128.827 274.915,129.200 275.300 M219.087 277.850 L 218.500 278.500 219.150 277.913 C 219.756 277.365,219.892 277.200,219.737 277.200 C 219.703 277.200,219.410 277.493,219.087 277.850 M274.087 278.650 L 273.500 279.300 274.150 278.713 C 274.756 278.165,274.892 278.000,274.737 278.000 C 274.703 278.000,274.410 278.293,274.087 278.650 M125.900 283.800 C 126.775 284.680,127.536 285.400,127.591 285.400 C 127.646 285.400,126.975 284.680,126.100 283.800 C 125.225 282.920,124.464 282.200,124.409 282.200 C 124.354 282.200,125.025 282.920,125.900 283.800 M204.154 283.545 C 204.513 283.589,205.053 283.589,205.354 283.543 C 205.654 283.497,205.360 283.461,204.700 283.462 C 204.040 283.463,203.794 283.500,204.154 283.545 M189.069 286.709 C 189.004 286.878,189.007 287.073,189.075 287.142 C 189.144 287.211,189.200 287.121,189.200 286.943 C 189.200 286.691,189.454 286.604,190.350 286.548 L 191.500 286.476 190.344 286.438 C 189.461 286.409,189.159 286.473,189.069 286.709 M193.866 292.300 C 193.867 293.070,193.903 293.360,193.946 292.946 C 193.989 292.531,193.989 291.901,193.944 291.546 C 193.900 291.190,193.865 291.530,193.866 292.300 M188.866 296.700 C 188.867 297.470,188.903 297.760,188.946 297.346 C 188.989 296.931,188.989 296.301,188.944 295.946 C 188.900 295.590,188.865 295.930,188.866 296.700 M203.646 299.200 C 203.646 299.585,203.688 299.743,203.738 299.550 C 203.788 299.358,203.788 299.043,203.738 298.850 C 203.688 298.657,203.646 298.815,203.646 299.200 M193.666 302.900 C 193.667 303.670,193.703 303.960,193.746 303.546 C 193.789 303.131,193.789 302.501,193.744 302.146 C 193.700 301.790,193.665 302.130,193.666 302.900 M188.666 307.300 C 188.667 308.070,188.703 308.360,188.746 307.946 C 188.789 307.531,188.789 306.901,188.744 306.546 C 188.700 306.190,188.665 306.530,188.666 307.300 M221.550 308.141 C 221.798 308.189,222.203 308.189,222.450 308.141 C 222.697 308.093,222.495 308.054,222.000 308.054 C 221.505 308.054,221.303 308.093,221.550 308.141 M191.746 310.344 C 192.101 310.389,192.731 310.389,193.146 310.346 C 193.560 310.303,193.270 310.267,192.500 310.266 C 191.730 310.265,191.390 310.300,191.746 310.344 M196.853 314.544 C 197.157 314.589,197.607 314.588,197.853 314.541 C 198.099 314.493,197.850 314.456,197.300 314.457 C 196.750 314.459,196.549 314.498,196.853 314.544 M202.453 314.544 C 202.757 314.589,203.207 314.588,203.453 314.541 C 203.699 314.493,203.450 314.456,202.900 314.457 C 202.350 314.459,202.149 314.498,202.453 314.544 M190.952 338.341 C 191.201 338.389,191.561 338.387,191.752 338.337 C 191.944 338.287,191.740 338.248,191.300 338.250 C 190.860 338.253,190.704 338.294,190.952 338.341 M208.550 338.341 C 208.798 338.389,209.203 338.389,209.450 338.341 C 209.697 338.293,209.495 338.254,209.000 338.254 C 208.505 338.254,208.303 338.293,208.550 338.341 M190.552 344.541 C 190.801 344.589,191.161 344.587,191.352 344.537 C 191.544 344.487,191.340 344.448,190.900 344.450 C 190.460 344.453,190.304 344.494,190.552 344.541 M208.950 344.541 C 209.197 344.589,209.603 344.589,209.850 344.541 C 210.097 344.493,209.895 344.454,209.400 344.454 C 208.905 344.454,208.703 344.493,208.950 344.541 " stroke="none" fill="#bcbcbc" fill-rule="evenodd"></path><path id="path7" d="" stroke="none" fill="#acacac" fill-rule="evenodd"></path><path id="path8" d="" stroke="none" fill="#2cbc100" fill-rule="evenodd"></path></g></svg>